# WaveFront *.obj file (generated by Autodesk ATF)

mtllib Cube 1x1 V5_Tunnel Horizontal.mtl

g Solid1:23

v 24.825001 7.700000 -16.975000
v 24.825001 41.700001 -16.975000
v 24.825001 7.700000 16.975000
v 24.825001 41.700001 16.975000
v 22.525001 10.200000 -14.675000
v 22.525001 39.200001 -14.675000
v 22.525001 10.200000 14.675000
v 22.525001 39.200001 14.675000
v 22.518933 7.700000 -16.975000
v 22.518933 41.700001 -16.975000
v 22.518933 7.700000 16.975000
v 22.518933 41.700001 16.975000
v 21.566243 10.200000 -14.675000
v 21.566243 39.200001 -14.675000
v 21.566243 10.200000 14.675000
v 21.566243 39.200001 14.675000
v 16.975000 7.700000 -24.825001
v 16.975000 41.700001 -24.825001
v 16.975000 7.700000 -22.518933
v 16.975000 41.700001 -22.518933
v 16.975000 7.700000 22.518933
v 16.975000 41.700001 22.518933
v 16.975000 7.700000 24.825001
v 16.975000 41.700001 24.825001
v 14.675000 10.200000 -24.825001
v 14.675000 39.200001 -24.825001
v 14.675000 10.200000 -21.566243
v 14.675000 39.200001 -21.566243
v 14.675000 10.200000 21.566243
v 14.675000 39.200001 21.566243
v 14.675000 10.200000 24.825001
v 14.675000 39.200001 24.825001
v -14.675000 10.200000 -24.825001
v -14.675000 39.200001 -24.825001
v -14.675000 10.200000 -21.566243
v -14.675000 39.200001 -21.566243
v -14.675000 10.200000 21.566243
v -14.675000 39.200001 21.566243
v -14.675000 10.200000 24.825001
v -14.675000 39.200001 24.825001
v -16.975000 7.700000 -24.825001
v -16.975000 41.700001 -24.825001
v -16.975000 7.700000 -22.518933
v -16.975000 41.700001 -22.518933
v -16.975000 7.700000 22.518933
v -16.975000 41.700001 22.518933
v -16.975000 7.700000 24.825001
v -16.975000 41.700001 24.825001
v -21.566243 10.200000 -14.675000
v -21.566243 39.200001 -14.675000
v -21.566243 10.200000 14.675000
v -21.566243 39.200001 14.675000
v -22.518933 7.700000 -16.975000
v -22.518933 41.700001 -16.975000
v -22.518933 7.700000 16.975000
v -22.518933 41.700001 16.975000
v -22.525001 10.200000 -14.675000
v -22.525001 39.200001 -14.675000
v -22.525001 10.200000 14.675000
v -22.525001 39.200001 14.675000
v -24.825001 7.700000 -16.975000
v -24.825001 41.700001 -16.975000
v -24.825001 7.700000 16.975000
v -24.825001 41.700001 16.975000
vt 1.467500 2.482500 0.000000
vt -1.467500 2.482500 0.000000
vt -1.467500 2.156624 0.000000
vt -2.156624 1.467500 0.000000
vt -2.252500 1.467500 0.000000
vt -2.252500 -1.467500 0.000000
vt -2.156624 -1.467500 0.000000
vt -1.467500 -2.156624 0.000000
vt -1.467500 -2.482500 0.000000
vt 1.467500 -2.482500 0.000000
vt 1.467500 -2.156624 0.000000
vt 2.156624 -1.467500 0.000000
vt 2.252500 -1.467500 0.000000
vt 2.252500 1.467500 0.000000
vt 2.156624 1.467500 0.000000
vt 1.467500 2.156624 0.000000
vt 0.325876 3.920000 0.000000
vt 0.000000 3.920000 0.000000
vt 0.000000 1.020000 0.000000
vt 0.325876 1.020000 0.000000
vt 0.000000 4.170000 0.000000
vt 0.000000 0.770000 0.000000
vt 0.230607 0.770000 0.000000
vt 0.230607 4.170000 0.000000
vt 0.000000 4.170000 0.000000
vt 0.000000 0.770000 0.000000
vt 0.784031 0.770000 0.000000
vt 0.784031 4.170000 0.000000
vt 0.000000 4.170000 0.000000
vt 0.000000 0.770000 0.000000
vt 0.230607 0.770000 0.000000
vt 0.230607 4.170000 0.000000
vt 0.000000 4.170000 0.000000
vt 0.000000 0.770000 0.000000
vt 3.395000 0.770000 0.000000
vt 3.395000 4.170000 0.000000
vt 0.000000 4.170000 0.000000
vt 0.000000 0.770000 0.000000
vt 0.230607 0.770000 0.000000
vt 0.230607 4.170000 0.000000
vt 0.000000 4.170000 0.000000
vt 0.000000 0.770000 0.000000
vt 0.784031 0.770000 0.000000
vt 0.784031 4.170000 0.000000
vt 0.325876 3.920000 0.000000
vt 0.000000 3.920000 0.000000
vt 0.000000 1.020000 0.000000
vt 0.325876 1.020000 0.000000
vt 0.000000 4.170000 0.000000
vt 0.000000 0.770000 0.000000
vt 3.395000 0.770000 0.000000
vt 3.395000 4.170000 0.000000
vt 0.230000 3.920000 0.000000
vt 3.165000 3.920000 0.000000
vt 3.165000 1.020000 0.000000
vt 0.230000 1.020000 0.000000
vt 0.974569 3.920000 0.000000
vt 0.000000 3.920000 0.000000
vt 0.000000 1.020000 0.000000
vt 0.974569 1.020000 0.000000
vt 0.095876 3.920000 0.000000
vt 0.000000 3.920000 0.000000
vt 0.000000 1.020000 0.000000
vt 0.095876 1.020000 0.000000
vt 2.935000 3.920000 0.000000
vt 0.000000 3.920000 0.000000
vt 0.000000 1.020000 0.000000
vt 2.935000 1.020000 0.000000
vt 0.095876 3.920000 0.000000
vt 0.000000 3.920000 0.000000
vt 0.000000 1.020000 0.000000
vt 0.095876 1.020000 0.000000
vt 0.974569 3.920000 0.000000
vt 0.000000 3.920000 0.000000
vt 0.000000 1.020000 0.000000
vt 0.974569 1.020000 0.000000
vt 0.325876 3.920000 0.000000
vt 0.000000 3.920000 0.000000
vt 0.000000 1.020000 0.000000
vt 0.325876 1.020000 0.000000
vt 0.000000 4.170000 0.000000
vt 0.000000 0.770000 0.000000
vt 0.230607 0.770000 0.000000
vt 0.230607 4.170000 0.000000
vt 0.000000 3.920000 0.000000
vt 0.000000 1.020000 0.000000
vt -2.935000 1.020000 0.000000
vt -2.935000 3.920000 0.000000
vt 0.230000 0.770000 0.000000
vt 0.230000 4.170000 0.000000
vt -3.165000 4.170000 0.000000
vt -3.165000 0.770000 0.000000
vt 0.325876 3.920000 0.000000
vt 0.000000 3.920000 0.000000
vt 0.000000 1.020000 0.000000
vt 0.325876 1.020000 0.000000
vt 0.974569 3.920000 0.000000
vt 0.000000 3.920000 0.000000
vt 0.000000 1.020000 0.000000
vt 0.974569 1.020000 0.000000
vt 0.095876 3.920000 0.000000
vt 0.000000 3.920000 0.000000
vt 0.000000 1.020000 0.000000
vt 0.095876 1.020000 0.000000
vt 2.935000 3.920000 0.000000
vt 0.000000 3.920000 0.000000
vt 0.000000 1.020000 0.000000
vt 2.935000 1.020000 0.000000
vt 0.095876 3.920000 0.000000
vt 0.000000 3.920000 0.000000
vt 0.000000 1.020000 0.000000
vt 0.095876 1.020000 0.000000
vt 0.974569 3.920000 0.000000
vt 0.000000 3.920000 0.000000
vt 0.000000 1.020000 0.000000
vt 0.974569 1.020000 0.000000
vt -1.697500 -2.482500 0.000000
vt 1.697500 -2.482500 0.000000
vt 1.697500 -2.251893 0.000000
vt 2.251893 -1.697500 0.000000
vt 2.482500 -1.697500 0.000000
vt 2.482500 1.697500 0.000000
vt 2.251893 1.697500 0.000000
vt 1.697500 2.251893 0.000000
vt 1.697500 2.482500 0.000000
vt -1.697500 2.482500 0.000000
vt -1.697500 2.251893 0.000000
vt -2.251893 1.697500 0.000000
vt -2.482500 1.697500 0.000000
vt -2.482500 -1.697500 0.000000
vt -2.251893 -1.697500 0.000000
vt -1.697500 -2.251893 0.000000
vt -1.467500 2.482500 0.000000
vt -1.467500 2.156624 0.000000
vt -2.156624 1.467500 0.000000
vt -2.252500 1.467500 0.000000
vt -2.252500 -1.467500 0.000000
vt -2.156624 -1.467500 0.000000
vt -1.467500 -2.156624 0.000000
vt -1.467500 -2.482500 0.000000
vt 1.467500 -2.482500 0.000000
vt 1.467500 -2.156624 0.000000
vt 2.156624 -1.467500 0.000000
vt 2.252500 -1.467500 0.000000
vt 2.252500 1.467500 0.000000
vt 2.156624 1.467500 0.000000
vt 1.467500 2.156624 0.000000
vt 1.467500 2.482500 0.000000
vt 0.000000 4.170000 0.000000
vt 0.000000 0.770000 0.000000
vt 0.230607 0.770000 0.000000
vt 0.230607 4.170000 0.000000
vt 0.000000 4.170000 0.000000
vt 0.000000 0.770000 0.000000
vt 0.784031 0.770000 0.000000
vt 0.784031 4.170000 0.000000
vt 0.000000 4.170000 0.000000
vt 0.000000 0.770000 0.000000
vt 0.230607 0.770000 0.000000
vt 0.230607 4.170000 0.000000
vt 0.000000 4.170000 0.000000
vt 0.000000 0.770000 0.000000
vt 3.395000 0.770000 0.000000
vt 3.395000 4.170000 0.000000
vt 0.000000 4.170000 0.000000
vt 0.000000 0.770000 0.000000
vt 0.230607 0.770000 0.000000
vt 0.230607 4.170000 0.000000
vt 0.000000 4.170000 0.000000
vt 0.000000 0.770000 0.000000
vt 0.784031 0.770000 0.000000
vt 0.784031 4.170000 0.000000
vt 0.000000 4.170000 0.000000
vt 0.000000 0.770000 0.000000
vt 0.230607 0.770000 0.000000
vt 0.230607 4.170000 0.000000
vt 1.697500 2.482500 0.000000
vt -1.697500 2.482500 0.000000
vt -1.697500 2.251893 0.000000
vt -2.251893 1.697500 0.000000
vt -2.482500 1.697500 0.000000
vt -2.482500 -1.697500 0.000000
vt -2.251893 -1.697500 0.000000
vt -1.697500 -2.251893 0.000000
vt -1.697500 -2.482500 0.000000
vt 1.697500 -2.482500 0.000000
vt 1.697500 -2.251893 0.000000
vt 2.251893 -1.697500 0.000000
vt 2.482500 -1.697500 0.000000
vt 2.482500 1.697500 0.000000
vt 2.251893 1.697500 0.000000
vt 1.697500 2.251893 0.000000
vn 0.000000 -0.100000 0.000000
vn 0.000000 -0.100000 0.000000
vn 0.000000 -0.100000 0.000000
vn 0.000000 -0.100000 0.000000
vn 0.000000 -0.100000 0.000000
vn 0.000000 -0.100000 0.000000
vn 0.000000 -0.100000 0.000000
vn 0.000000 -0.100000 0.000000
vn 0.000000 -0.100000 0.000000
vn 0.000000 -0.100000 0.000000
vn 0.000000 -0.100000 0.000000
vn 0.000000 -0.100000 0.000000
vn 0.000000 -0.100000 0.000000
vn 0.000000 -0.100000 0.000000
vn 0.000000 -0.100000 0.000000
vn 0.000000 -0.100000 0.000000
vn -0.100000 0.000000 0.000000
vn -0.100000 0.000000 0.000000
vn -0.100000 0.000000 0.000000
vn -0.100000 0.000000 0.000000
vn 0.100000 0.000000 0.000000
vn 0.100000 0.000000 0.000000
vn 0.100000 0.000000 0.000000
vn 0.100000 0.000000 0.000000
vn 0.070711 0.000000 -0.070711
vn 0.070711 0.000000 -0.070711
vn 0.070711 0.000000 -0.070711
vn 0.070711 0.000000 -0.070711
vn 0.000000 0.000000 -0.100000
vn 0.000000 0.000000 -0.100000
vn 0.000000 0.000000 -0.100000
vn 0.000000 0.000000 -0.100000
vn 0.100000 0.000000 0.000000
vn 0.100000 0.000000 0.000000
vn 0.100000 0.000000 0.000000
vn 0.100000 0.000000 0.000000
vn 0.000000 0.000000 0.100000
vn 0.000000 0.000000 0.100000
vn 0.000000 0.000000 0.100000
vn 0.000000 0.000000 0.100000
vn 0.070711 0.000000 0.070711
vn 0.070711 0.000000 0.070711
vn 0.070711 0.000000 0.070711
vn 0.070711 0.000000 0.070711
vn 0.100000 0.000000 0.000000
vn 0.100000 0.000000 0.000000
vn 0.100000 0.000000 0.000000
vn 0.100000 0.000000 0.000000
vn 0.000000 0.000000 -0.100000
vn 0.000000 0.000000 -0.100000
vn 0.000000 0.000000 -0.100000
vn 0.000000 0.000000 -0.100000
vn 0.000000 0.000000 -0.100000
vn 0.000000 0.000000 -0.100000
vn 0.000000 0.000000 -0.100000
vn 0.000000 0.000000 -0.100000
vn 0.070711 0.000000 0.070711
vn 0.070711 0.000000 0.070711
vn 0.070711 0.000000 0.070711
vn 0.070711 0.000000 0.070711
vn 0.000000 0.000000 0.100000
vn 0.000000 0.000000 0.100000
vn 0.000000 0.000000 0.100000
vn 0.000000 0.000000 0.100000
vn 0.100000 0.000000 0.000000
vn 0.100000 0.000000 0.000000
vn 0.100000 0.000000 0.000000
vn 0.100000 0.000000 0.000000
vn 0.000000 0.000000 -0.100000
vn 0.000000 0.000000 -0.100000
vn 0.000000 0.000000 -0.100000
vn 0.000000 0.000000 -0.100000
vn 0.070711 0.000000 -0.070711
vn 0.070711 0.000000 -0.070711
vn 0.070711 0.000000 -0.070711
vn 0.070711 0.000000 -0.070711
vn 0.100000 0.000000 0.000000
vn 0.100000 0.000000 0.000000
vn 0.100000 0.000000 0.000000
vn 0.100000 0.000000 0.000000
vn 0.100000 0.000000 0.000000
vn 0.100000 0.000000 0.000000
vn 0.100000 0.000000 0.000000
vn 0.100000 0.000000 0.000000
vn 0.000000 0.000000 0.100000
vn 0.000000 0.000000 0.100000
vn 0.000000 0.000000 0.100000
vn 0.000000 0.000000 0.100000
vn 0.000000 0.000000 0.100000
vn 0.000000 0.000000 0.100000
vn 0.000000 0.000000 0.100000
vn 0.000000 0.000000 0.100000
vn -0.100000 0.000000 0.000000
vn -0.100000 0.000000 0.000000
vn -0.100000 0.000000 0.000000
vn -0.100000 0.000000 0.000000
vn -0.070711 0.000000 -0.070711
vn -0.070711 0.000000 -0.070711
vn -0.070711 0.000000 -0.070711
vn -0.070711 0.000000 -0.070711
vn 0.000000 0.000000 -0.100000
vn 0.000000 0.000000 -0.100000
vn 0.000000 0.000000 -0.100000
vn 0.000000 0.000000 -0.100000
vn -0.100000 0.000000 0.000000
vn -0.100000 0.000000 0.000000
vn -0.100000 0.000000 0.000000
vn -0.100000 0.000000 0.000000
vn 0.000000 0.000000 0.100000
vn 0.000000 0.000000 0.100000
vn 0.000000 0.000000 0.100000
vn 0.000000 0.000000 0.100000
vn -0.070711 0.000000 0.070711
vn -0.070711 0.000000 0.070711
vn -0.070711 0.000000 0.070711
vn -0.070711 0.000000 0.070711
vn 0.000000 -0.100000 0.000000
vn 0.000000 -0.100000 0.000000
vn 0.000000 -0.100000 0.000000
vn 0.000000 -0.100000 0.000000
vn 0.000000 -0.100000 0.000000
vn 0.000000 -0.100000 0.000000
vn 0.000000 -0.100000 0.000000
vn 0.000000 -0.100000 0.000000
vn 0.000000 -0.100000 0.000000
vn 0.000000 -0.100000 0.000000
vn 0.000000 -0.100000 0.000000
vn 0.000000 -0.100000 0.000000
vn 0.000000 -0.100000 0.000000
vn 0.000000 -0.100000 0.000000
vn 0.000000 -0.100000 0.000000
vn 0.000000 -0.100000 0.000000
vn 0.000000 0.100000 0.000000
vn 0.000000 0.100000 0.000000
vn 0.000000 0.100000 0.000000
vn 0.000000 0.100000 0.000000
vn 0.000000 0.100000 0.000000
vn 0.000000 0.100000 0.000000
vn 0.000000 0.100000 0.000000
vn 0.000000 0.100000 0.000000
vn 0.000000 0.100000 0.000000
vn 0.000000 0.100000 0.000000
vn 0.000000 0.100000 0.000000
vn 0.000000 0.100000 0.000000
vn 0.000000 0.100000 0.000000
vn 0.000000 0.100000 0.000000
vn 0.000000 0.100000 0.000000
vn 0.000000 0.100000 0.000000
vn -0.100000 0.000000 0.000000
vn -0.100000 0.000000 0.000000
vn -0.100000 0.000000 0.000000
vn -0.100000 0.000000 0.000000
vn -0.070711 0.000000 0.070711
vn -0.070711 0.000000 0.070711
vn -0.070711 0.000000 0.070711
vn -0.070711 0.000000 0.070711
vn 0.000000 0.000000 0.100000
vn 0.000000 0.000000 0.100000
vn 0.000000 0.000000 0.100000
vn 0.000000 0.000000 0.100000
vn -0.100000 0.000000 0.000000
vn -0.100000 0.000000 0.000000
vn -0.100000 0.000000 0.000000
vn -0.100000 0.000000 0.000000
vn 0.000000 0.000000 -0.100000
vn 0.000000 0.000000 -0.100000
vn 0.000000 0.000000 -0.100000
vn 0.000000 0.000000 -0.100000
vn -0.070711 0.000000 -0.070711
vn -0.070711 0.000000 -0.070711
vn -0.070711 0.000000 -0.070711
vn -0.070711 0.000000 -0.070711
vn -0.100000 0.000000 0.000000
vn -0.100000 0.000000 0.000000
vn -0.100000 0.000000 0.000000
vn -0.100000 0.000000 0.000000
vn 0.000000 0.100000 0.000000
vn 0.000000 0.100000 0.000000
vn 0.000000 0.100000 0.000000
vn 0.000000 0.100000 0.000000
vn 0.000000 0.100000 0.000000
vn 0.000000 0.100000 0.000000
vn 0.000000 0.100000 0.000000
vn 0.000000 0.100000 0.000000
vn 0.000000 0.100000 0.000000
vn 0.000000 0.100000 0.000000
vn 0.000000 0.100000 0.000000
vn 0.000000 0.100000 0.000000
vn 0.000000 0.100000 0.000000
vn 0.000000 0.100000 0.000000
vn 0.000000 0.100000 0.000000
vn 0.000000 0.100000 0.000000
usemtl 128,64,64
f 32/1/1 40/2/2 30/16/16
f 30/16/16 40/2/2 38/3/3
f 30/16/16 38/3/3 28/11/11
f 28/11/11 38/3/3 36/8/8
f 28/11/11 36/8/8 26/10/10
f 26/10/10 36/8/8 34/9/9
f 38/3/3 52/4/4 36/8/8
f 36/8/8 52/4/4 50/7/7
f 50/7/7 52/4/4 60/5/5
f 50/7/7 60/5/5 58/6/6
f 30/16/16 28/11/11 16/15/15
f 16/15/15 28/11/11 14/12/12
f 16/15/15 14/12/12 6/13/13
f 6/13/13 8/14/14 16/15/15
f 28/17/17 26/18/18 27/20/20
f 27/20/20 26/18/18 25/19/19
f 19/22/22 17/23/23 20/21/21
f 20/21/21 17/23/23 18/24/24
f 9/26/26 19/27/27 10/25/25
f 10/25/25 19/27/27 20/28/28
f 1/30/30 9/31/31 2/29/29
f 2/29/29 9/31/31 10/32/32
f 3/34/34 1/35/35 4/33/33
f 4/33/33 1/35/35 2/36/36
f 11/38/38 3/39/39 12/37/37
f 12/37/37 3/39/39 4/40/40
f 21/42/42 11/43/43 22/41/41
f 22/41/41 11/43/43 12/44/44
f 34/45/45 36/46/46 33/48/48
f 33/48/48 36/46/46 35/47/47
f 17/50/50 26/53/53 18/49/49
f 18/49/49 26/53/53 34/54/54
f 18/49/49 34/54/54 42/52/52
f 42/52/52 34/54/54 41/51/51
f 41/51/51 34/54/54 33/55/55
f 41/51/51 33/55/55 25/56/56
f 26/53/53 17/50/50 25/56/56
f 25/56/56 17/50/50 41/51/51
f 36/57/57 50/58/58 35/60/60
f 35/60/60 50/58/58 49/59/59
f 50/61/61 58/62/62 49/64/64
f 49/64/64 58/62/62 57/63/63
f 58/65/65 60/66/66 57/68/68
f 57/68/68 60/66/66 59/67/67
f 60/69/69 52/70/70 59/72/72
f 59/72/72 52/70/70 51/71/71
f 52/73/73 38/74/74 51/76/76
f 51/76/76 38/74/74 37/75/75
f 38/77/77 40/78/78 37/80/80
f 37/80/80 40/78/78 39/79/79
f 23/82/82 21/83/83 24/81/81
f 24/81/81 21/83/83 22/84/84
f 31/86/86 23/89/89 32/85/85
f 32/85/85 23/89/89 24/90/90
f 32/85/85 24/90/90 48/91/91
f 31/86/86 39/87/87 23/89/89
f 23/89/89 39/87/87 47/92/92
f 47/92/92 39/87/87 40/88/88
f 47/92/92 40/88/88 48/91/91
f 48/91/91 40/88/88 32/85/85
f 32/93/93 30/94/94 31/96/96
f 31/96/96 30/94/94 29/95/95
f 30/97/97 16/98/98 29/100/100
f 29/100/100 16/98/98 15/99/99
f 16/101/101 8/102/102 15/104/104
f 15/104/104 8/102/102 7/103/103
f 8/105/105 6/106/106 7/108/108
f 7/108/108 6/106/106 5/107/107
f 6/109/109 14/110/110 5/112/112
f 5/112/112 14/110/110 13/111/111
f 14/113/113 28/114/114 13/116/116
f 13/116/116 28/114/114 27/115/115
f 41/117/117 17/118/118 43/132/132
f 43/132/132 17/118/118 19/119/119
f 43/132/132 19/119/119 53/131/131
f 53/131/131 19/119/119 55/128/128
f 53/131/131 55/128/128 63/129/129
f 19/119/119 9/120/120 55/128/128
f 55/128/128 9/120/120 45/127/127
f 45/127/127 9/120/120 11/123/123
f 45/127/127 11/123/123 21/124/124
f 9/120/120 1/121/121 11/123/123
f 11/123/123 1/121/121 3/122/122
f 23/125/125 47/126/126 21/124/124
f 21/124/124 47/126/126 45/127/127
f 63/129/129 61/130/130 53/131/131
f 39/148/148 31/133/133 37/147/147
f 37/147/147 31/133/133 29/134/134
f 37/147/147 29/134/134 35/142/142
f 35/142/142 29/134/134 27/139/139
f 35/142/142 27/139/139 33/141/141
f 33/141/141 27/139/139 25/140/140
f 29/134/134 15/135/135 27/139/139
f 27/139/139 15/135/135 13/138/138
f 13/138/138 15/135/135 7/136/136
f 13/138/138 7/136/136 5/137/137
f 37/147/147 35/142/142 51/146/146
f 51/146/146 35/142/142 49/143/143
f 51/146/146 49/143/143 57/144/144
f 57/144/144 59/145/145 51/146/146
f 45/150/150 47/151/151 46/149/149
f 46/149/149 47/151/151 48/152/152
f 55/154/154 45/155/155 56/153/153
f 56/153/153 45/155/155 46/156/156
f 63/158/158 55/159/159 64/157/157
f 64/157/157 55/159/159 56/160/160
f 61/162/162 63/163/163 62/161/161
f 62/161/161 63/163/163 64/164/164
f 53/166/166 61/167/167 54/165/165
f 54/165/165 61/167/167 62/168/168
f 43/170/170 53/171/171 44/169/169
f 44/169/169 53/171/171 54/172/172
f 41/174/174 43/175/175 42/173/173
f 42/173/173 43/175/175 44/176/176
f 48/177/177 24/178/178 46/192/192
f 46/192/192 24/178/178 22/179/179
f 46/192/192 22/179/179 56/191/191
f 56/191/191 22/179/179 54/188/188
f 56/191/191 54/188/188 62/189/189
f 22/179/179 12/180/180 54/188/188
f 54/188/188 12/180/180 44/187/187
f 44/187/187 12/180/180 10/183/183
f 44/187/187 10/183/183 20/184/184
f 12/180/180 4/181/181 10/183/183
f 10/183/183 4/181/181 2/182/182
f 18/185/185 42/186/186 20/184/184
f 20/184/184 42/186/186 44/187/187
f 62/189/189 64/190/190 56/191/191
# 64 vertices
# 192 texture params
# 192 normals
# 128 facets

# 24 groups
