# WaveFront *.obj file (generated by Autodesk ATF)

mtllib Cube 1x1 V5_Tunnel Vertical.mtl

g Solid1:22

v 24.825001 7.700000 -16.975000
v 24.825001 41.700001 -16.975000
v 24.825001 7.700000 16.975000
v 24.825001 41.700001 16.975000
v 22.518933 7.700000 -16.975000
v 22.518933 41.700001 -16.975000
v 22.518933 7.700000 -14.825000
v 22.518933 41.700001 -14.825000
v 22.518933 7.700000 14.825000
v 22.518933 41.700001 14.825000
v 22.518933 7.700000 16.975000
v 22.518933 41.700001 16.975000
v 21.575000 7.700000 -14.825000
v 21.575000 41.700001 -14.825000
v 21.575000 7.700000 14.825000
v 21.575000 41.700001 14.825000
v 16.975000 7.700000 -24.825001
v 16.975000 41.700001 -24.825001
v 16.975000 7.700000 -22.518933
v 16.975000 41.700001 -22.518933
v 16.975000 7.700000 22.518933
v 16.975000 41.700001 22.518933
v 16.975000 7.700000 24.825001
v 16.975000 41.700001 24.825001
v 14.825000 7.700000 -22.518933
v 14.825000 41.700001 -22.518933
v 14.825000 7.700000 -21.575000
v 14.825000 41.700001 -21.575000
v 14.825000 7.700000 21.575000
v 14.825000 41.700001 21.575000
v 14.825000 7.700000 22.518933
v 14.825000 41.700001 22.518933
v -14.825000 7.700000 -22.518933
v -14.825000 41.700001 -22.518933
v -14.825000 7.700000 -21.575000
v -14.825000 41.700001 -21.575000
v -14.825000 7.700000 21.575000
v -14.825000 41.700001 21.575000
v -14.825000 7.700000 22.518933
v -14.825000 41.700001 22.518933
v -16.975000 7.700000 -24.825001
v -16.975000 41.700001 -24.825001
v -16.975000 7.700000 -22.518933
v -16.975000 41.700001 -22.518933
v -16.975000 7.700000 22.518933
v -16.975000 41.700001 22.518933
v -16.975000 7.700000 24.825001
v -16.975000 41.700001 24.825001
v -21.575000 7.700000 -14.825000
v -21.575000 41.700001 -14.825000
v -21.575000 7.700000 14.825000
v -21.575000 41.700001 14.825000
v -22.518933 7.700000 -16.975000
v -22.518933 41.700001 -16.975000
v -22.518933 7.700000 -14.825000
v -22.518933 41.700001 -14.825000
v -22.518933 7.700000 14.825000
v -22.518933 41.700001 14.825000
v -22.518933 7.700000 16.975000
v -22.518933 41.700001 16.975000
v -24.825001 7.700000 -16.975000
v -24.825001 41.700001 -16.975000
v -24.825001 7.700000 16.975000
v -24.825001 41.700001 16.975000
vt 0.094393 4.170000 0.000000
vt 0.000000 4.170000 0.000000
vt 0.000000 0.770000 0.000000
vt 0.094393 0.770000 0.000000
vt 0.954594 4.170000 0.000000
vt 0.000000 4.170000 0.000000
vt 0.000000 0.770000 0.000000
vt 0.954594 0.770000 0.000000
vt 0.094393 4.170000 0.000000
vt 0.000000 4.170000 0.000000
vt 0.000000 0.770000 0.000000
vt 0.094393 0.770000 0.000000
vt 2.965000 4.170000 0.000000
vt 0.000000 4.170000 0.000000
vt 0.000000 0.770000 0.000000
vt 2.965000 0.770000 0.000000
vt 0.094393 4.170000 0.000000
vt 0.000000 4.170000 0.000000
vt 0.000000 0.770000 0.000000
vt 0.094393 0.770000 0.000000
vt 0.954594 4.170000 0.000000
vt 0.000000 4.170000 0.000000
vt 0.000000 0.770000 0.000000
vt 0.954594 0.770000 0.000000
vt 0.094393 4.170000 0.000000
vt 0.000000 4.170000 0.000000
vt 0.000000 0.770000 0.000000
vt 0.094393 0.770000 0.000000
vt 2.965000 4.170000 0.000000
vt 0.000000 4.170000 0.000000
vt 0.000000 0.770000 0.000000
vt 2.965000 0.770000 0.000000
vt 3.395000 4.170000 0.000000
vt 0.000000 4.170000 0.000000
vt 0.000000 0.770000 0.000000
vt 3.395000 0.770000 0.000000
vt 0.230607 4.170000 0.000000
vt 0.000000 4.170000 0.000000
vt 0.000000 0.770000 0.000000
vt 0.230607 0.770000 0.000000
vt 0.784031 4.170000 0.000000
vt 0.000000 4.170000 0.000000
vt 0.000000 0.770000 0.000000
vt 0.784031 0.770000 0.000000
vt 0.230607 4.170000 0.000000
vt 0.000000 4.170000 0.000000
vt 0.000000 0.770000 0.000000
vt 0.230607 0.770000 0.000000
vt 3.395000 4.170000 0.000000
vt 0.000000 4.170000 0.000000
vt 0.000000 0.770000 0.000000
vt 3.395000 0.770000 0.000000
vt 0.230607 4.170000 0.000000
vt 0.000000 4.170000 0.000000
vt 0.000000 0.770000 0.000000
vt 0.230607 0.770000 0.000000
vt 0.784031 4.170000 0.000000
vt 0.000000 4.170000 0.000000
vt 0.000000 0.770000 0.000000
vt 0.784031 0.770000 0.000000
vt 0.230607 4.170000 0.000000
vt 0.000000 4.170000 0.000000
vt 0.000000 0.770000 0.000000
vt 0.230607 0.770000 0.000000
vt 0.094393 4.170000 0.000000
vt 0.000000 4.170000 0.000000
vt 0.000000 0.770000 0.000000
vt 0.094393 0.770000 0.000000
vt 0.954594 4.170000 0.000000
vt 0.000000 4.170000 0.000000
vt 0.000000 0.770000 0.000000
vt 0.954594 0.770000 0.000000
vt 0.094393 4.170000 0.000000
vt 0.000000 4.170000 0.000000
vt 0.000000 0.770000 0.000000
vt 0.094393 0.770000 0.000000
vt 2.965000 4.170000 0.000000
vt 0.000000 4.170000 0.000000
vt 0.000000 0.770000 0.000000
vt 2.965000 0.770000 0.000000
vt 0.094393 4.170000 0.000000
vt 0.000000 4.170000 0.000000
vt 0.000000 0.770000 0.000000
vt 0.094393 0.770000 0.000000
vt 0.954594 4.170000 0.000000
vt 0.000000 4.170000 0.000000
vt 0.000000 0.770000 0.000000
vt 0.954594 0.770000 0.000000
vt 0.094393 4.170000 0.000000
vt 0.000000 4.170000 0.000000
vt 0.000000 0.770000 0.000000
vt 0.094393 0.770000 0.000000
vt 2.965000 4.170000 0.000000
vt 0.000000 4.170000 0.000000
vt 0.000000 0.770000 0.000000
vt 2.965000 0.770000 0.000000
vt 3.395000 4.170000 0.000000
vt 0.000000 4.170000 0.000000
vt 0.000000 0.770000 0.000000
vt 3.395000 0.770000 0.000000
vt 0.230607 4.170000 0.000000
vt 0.000000 4.170000 0.000000
vt 0.000000 0.770000 0.000000
vt 0.230607 0.770000 0.000000
vt 0.784031 4.170000 0.000000
vt 0.000000 4.170000 0.000000
vt 0.000000 0.770000 0.000000
vt 0.784031 0.770000 0.000000
vt 0.230607 4.170000 0.000000
vt 0.000000 4.170000 0.000000
vt 0.000000 0.770000 0.000000
vt 0.230607 0.770000 0.000000
vt 3.395000 4.170000 0.000000
vt 0.000000 4.170000 0.000000
vt 0.000000 0.770000 0.000000
vt 3.395000 0.770000 0.000000
vt 0.230607 4.170000 0.000000
vt 0.000000 4.170000 0.000000
vt 0.000000 0.770000 0.000000
vt 0.230607 0.770000 0.000000
vt 0.784031 4.170000 0.000000
vt 0.000000 4.170000 0.000000
vt 0.000000 0.770000 0.000000
vt 0.784031 0.770000 0.000000
vt 0.230607 4.170000 0.000000
vt 0.000000 4.170000 0.000000
vt 0.000000 0.770000 0.000000
vt 0.230607 0.770000 0.000000
vt -2.251893 1.482500 0.000000
vt -2.157500 1.482500 0.000000
vt -1.482500 2.157500 0.000000
vt -1.482500 2.251893 0.000000
vt 1.482500 2.251893 0.000000
vt 1.482500 2.157500 0.000000
vt 2.157500 1.482500 0.000000
vt 2.251893 1.482500 0.000000
vt 2.251893 -1.482500 0.000000
vt 2.157500 -1.482500 0.000000
vt 1.482500 -2.157500 0.000000
vt 1.482500 -2.251893 0.000000
vt -1.482500 -2.251893 0.000000
vt -1.482500 -2.157500 0.000000
vt -2.157500 -1.482500 0.000000
vt -2.251893 -1.482500 0.000000
vt 1.697500 2.482500 0.000000
vt -1.697500 2.482500 0.000000
vt -1.697500 2.251893 0.000000
vt -2.251893 1.697500 0.000000
vt -2.482500 1.697500 0.000000
vt -2.482500 -1.697500 0.000000
vt -2.251893 -1.697500 0.000000
vt -1.697500 -2.251893 0.000000
vt -1.697500 -2.482500 0.000000
vt 1.697500 -2.482500 0.000000
vt 1.697500 -2.251893 0.000000
vt 2.251893 -1.697500 0.000000
vt 2.482500 -1.697500 0.000000
vt 2.482500 1.697500 0.000000
vt 2.251893 1.697500 0.000000
vt 1.697500 2.251893 0.000000
vt 2.157500 1.482500 0.000000
vt 2.251893 1.482500 0.000000
vt 2.251893 -1.482500 0.000000
vt 2.157500 -1.482500 0.000000
vt 1.482500 -2.157500 0.000000
vt 1.482500 -2.251893 0.000000
vt -1.482500 -2.251893 0.000000
vt -1.482500 -2.157500 0.000000
vt -2.157500 -1.482500 0.000000
vt -2.251893 -1.482500 0.000000
vt -2.251893 1.482500 0.000000
vt -2.157500 1.482500 0.000000
vt -1.482500 2.157500 0.000000
vt -1.482500 2.251893 0.000000
vt 1.482500 2.251893 0.000000
vt 1.482500 2.157500 0.000000
vt 1.697500 2.482500 0.000000
vt -1.697500 2.482500 0.000000
vt -1.697500 2.251893 0.000000
vt -2.251893 1.697500 0.000000
vt -2.482500 1.697500 0.000000
vt -2.482500 -1.697500 0.000000
vt -2.251893 -1.697500 0.000000
vt -1.697500 -2.251893 0.000000
vt -1.697500 -2.482500 0.000000
vt 1.697500 -2.482500 0.000000
vt 1.697500 -2.251893 0.000000
vt 2.251893 -1.697500 0.000000
vt 2.482500 -1.697500 0.000000
vt 2.482500 1.697500 0.000000
vt 2.251893 1.697500 0.000000
vt 1.697500 2.251893 0.000000
vn 0.000000 0.000000 0.100000
vn 0.000000 0.000000 0.100000
vn 0.000000 0.000000 0.100000
vn 0.000000 0.000000 0.100000
vn -0.070711 0.000000 0.070711
vn -0.070711 0.000000 0.070711
vn -0.070711 0.000000 0.070711
vn -0.070711 0.000000 0.070711
vn -0.100000 0.000000 0.000000
vn -0.100000 0.000000 0.000000
vn -0.100000 0.000000 0.000000
vn -0.100000 0.000000 0.000000
vn 0.000000 0.000000 0.100000
vn 0.000000 0.000000 0.100000
vn 0.000000 0.000000 0.100000
vn 0.000000 0.000000 0.100000
vn 0.100000 0.000000 0.000000
vn 0.100000 0.000000 0.000000
vn 0.100000 0.000000 0.000000
vn 0.100000 0.000000 0.000000
vn 0.070711 0.000000 0.070711
vn 0.070711 0.000000 0.070711
vn 0.070711 0.000000 0.070711
vn 0.070711 0.000000 0.070711
vn 0.000000 0.000000 0.100000
vn 0.000000 0.000000 0.100000
vn 0.000000 0.000000 0.100000
vn 0.000000 0.000000 0.100000
vn 0.100000 0.000000 0.000000
vn 0.100000 0.000000 0.000000
vn 0.100000 0.000000 0.000000
vn 0.100000 0.000000 0.000000
vn 0.000000 0.000000 -0.100000
vn 0.000000 0.000000 -0.100000
vn 0.000000 0.000000 -0.100000
vn 0.000000 0.000000 -0.100000
vn 0.100000 0.000000 0.000000
vn 0.100000 0.000000 0.000000
vn 0.100000 0.000000 0.000000
vn 0.100000 0.000000 0.000000
vn 0.070711 0.000000 -0.070711
vn 0.070711 0.000000 -0.070711
vn 0.070711 0.000000 -0.070711
vn 0.070711 0.000000 -0.070711
vn 0.000000 0.000000 -0.100000
vn 0.000000 0.000000 -0.100000
vn 0.000000 0.000000 -0.100000
vn 0.000000 0.000000 -0.100000
vn 0.100000 0.000000 0.000000
vn 0.100000 0.000000 0.000000
vn 0.100000 0.000000 0.000000
vn 0.100000 0.000000 0.000000
vn 0.000000 0.000000 0.100000
vn 0.000000 0.000000 0.100000
vn 0.000000 0.000000 0.100000
vn 0.000000 0.000000 0.100000
vn 0.070711 0.000000 0.070711
vn 0.070711 0.000000 0.070711
vn 0.070711 0.000000 0.070711
vn 0.070711 0.000000 0.070711
vn 0.100000 0.000000 0.000000
vn 0.100000 0.000000 0.000000
vn 0.100000 0.000000 0.000000
vn 0.100000 0.000000 0.000000
vn 0.000000 0.000000 -0.100000
vn 0.000000 0.000000 -0.100000
vn 0.000000 0.000000 -0.100000
vn 0.000000 0.000000 -0.100000
vn 0.070711 0.000000 -0.070711
vn 0.070711 0.000000 -0.070711
vn 0.070711 0.000000 -0.070711
vn 0.070711 0.000000 -0.070711
vn 0.100000 0.000000 0.000000
vn 0.100000 0.000000 0.000000
vn 0.100000 0.000000 0.000000
vn 0.100000 0.000000 0.000000
vn 0.000000 0.000000 -0.100000
vn 0.000000 0.000000 -0.100000
vn 0.000000 0.000000 -0.100000
vn 0.000000 0.000000 -0.100000
vn -0.100000 0.000000 0.000000
vn -0.100000 0.000000 0.000000
vn -0.100000 0.000000 0.000000
vn -0.100000 0.000000 0.000000
vn -0.070711 0.000000 -0.070711
vn -0.070711 0.000000 -0.070711
vn -0.070711 0.000000 -0.070711
vn -0.070711 0.000000 -0.070711
vn 0.000000 0.000000 -0.100000
vn 0.000000 0.000000 -0.100000
vn 0.000000 0.000000 -0.100000
vn 0.000000 0.000000 -0.100000
vn -0.100000 0.000000 0.000000
vn -0.100000 0.000000 0.000000
vn -0.100000 0.000000 0.000000
vn -0.100000 0.000000 0.000000
vn 0.000000 0.000000 0.100000
vn 0.000000 0.000000 0.100000
vn 0.000000 0.000000 0.100000
vn 0.000000 0.000000 0.100000
vn -0.100000 0.000000 0.000000
vn -0.100000 0.000000 0.000000
vn -0.100000 0.000000 0.000000
vn -0.100000 0.000000 0.000000
vn -0.070711 0.000000 0.070711
vn -0.070711 0.000000 0.070711
vn -0.070711 0.000000 0.070711
vn -0.070711 0.000000 0.070711
vn 0.000000 0.000000 0.100000
vn 0.000000 0.000000 0.100000
vn 0.000000 0.000000 0.100000
vn 0.000000 0.000000 0.100000
vn -0.100000 0.000000 0.000000
vn -0.100000 0.000000 0.000000
vn -0.100000 0.000000 0.000000
vn -0.100000 0.000000 0.000000
vn 0.000000 0.000000 -0.100000
vn 0.000000 0.000000 -0.100000
vn 0.000000 0.000000 -0.100000
vn 0.000000 0.000000 -0.100000
vn -0.070711 0.000000 -0.070711
vn -0.070711 0.000000 -0.070711
vn -0.070711 0.000000 -0.070711
vn -0.070711 0.000000 -0.070711
vn -0.100000 0.000000 0.000000
vn -0.100000 0.000000 0.000000
vn -0.100000 0.000000 0.000000
vn -0.100000 0.000000 0.000000
vn 0.000000 -0.100000 0.000000
vn 0.000000 -0.100000 0.000000
vn 0.000000 -0.100000 0.000000
vn 0.000000 -0.100000 0.000000
vn 0.000000 -0.100000 0.000000
vn 0.000000 -0.100000 0.000000
vn 0.000000 -0.100000 0.000000
vn 0.000000 -0.100000 0.000000
vn 0.000000 -0.100000 0.000000
vn 0.000000 -0.100000 0.000000
vn 0.000000 -0.100000 0.000000
vn 0.000000 -0.100000 0.000000
vn 0.000000 -0.100000 0.000000
vn 0.000000 -0.100000 0.000000
vn 0.000000 -0.100000 0.000000
vn 0.000000 -0.100000 0.000000
vn 0.000000 -0.100000 0.000000
vn 0.000000 -0.100000 0.000000
vn 0.000000 -0.100000 0.000000
vn 0.000000 -0.100000 0.000000
vn 0.000000 -0.100000 0.000000
vn 0.000000 -0.100000 0.000000
vn 0.000000 -0.100000 0.000000
vn 0.000000 -0.100000 0.000000
vn 0.000000 -0.100000 0.000000
vn 0.000000 -0.100000 0.000000
vn 0.000000 -0.100000 0.000000
vn 0.000000 -0.100000 0.000000
vn 0.000000 -0.100000 0.000000
vn 0.000000 -0.100000 0.000000
vn 0.000000 -0.100000 0.000000
vn 0.000000 -0.100000 0.000000
vn 0.000000 0.100000 0.000000
vn 0.000000 0.100000 0.000000
vn 0.000000 0.100000 0.000000
vn 0.000000 0.100000 0.000000
vn 0.000000 0.100000 0.000000
vn 0.000000 0.100000 0.000000
vn 0.000000 0.100000 0.000000
vn 0.000000 0.100000 0.000000
vn 0.000000 0.100000 0.000000
vn 0.000000 0.100000 0.000000
vn 0.000000 0.100000 0.000000
vn 0.000000 0.100000 0.000000
vn 0.000000 0.100000 0.000000
vn 0.000000 0.100000 0.000000
vn 0.000000 0.100000 0.000000
vn 0.000000 0.100000 0.000000
vn 0.000000 0.100000 0.000000
vn 0.000000 0.100000 0.000000
vn 0.000000 0.100000 0.000000
vn 0.000000 0.100000 0.000000
vn 0.000000 0.100000 0.000000
vn 0.000000 0.100000 0.000000
vn 0.000000 0.100000 0.000000
vn 0.000000 0.100000 0.000000
vn 0.000000 0.100000 0.000000
vn 0.000000 0.100000 0.000000
vn 0.000000 0.100000 0.000000
vn 0.000000 0.100000 0.000000
vn 0.000000 0.100000 0.000000
vn 0.000000 0.100000 0.000000
vn 0.000000 0.100000 0.000000
vn 0.000000 0.100000 0.000000
usemtl 128,64,64
f 8/1/1 14/2/2 7/4/4
f 7/4/4 14/2/2 13/3/3
f 14/5/5 28/6/6 13/8/8
f 13/8/8 28/6/6 27/7/7
f 28/9/9 26/10/10 27/12/12
f 27/12/12 26/10/10 25/11/11
f 26/13/13 34/14/14 25/16/16
f 25/16/16 34/14/14 33/15/15
f 34/17/17 36/18/18 33/20/20
f 33/20/20 36/18/18 35/19/19
f 36/21/21 50/22/22 35/24/24
f 35/24/24 50/22/22 49/23/23
f 50/25/25 56/26/26 49/28/28
f 49/28/28 56/26/26 55/27/27
f 56/29/29 58/30/30 55/32/32
f 55/32/32 58/30/30 57/31/31
f 42/33/33 18/34/34 41/36/36
f 41/36/36 18/34/34 17/35/35
f 18/37/37 20/38/38 17/40/40
f 17/40/40 20/38/38 19/39/39
f 20/41/41 6/42/42 19/44/44
f 19/44/44 6/42/42 5/43/43
f 6/45/45 2/46/46 5/48/48
f 5/48/48 2/46/46 1/47/47
f 2/49/49 4/50/50 1/52/52
f 1/52/52 4/50/50 3/51/51
f 4/53/53 12/54/54 3/56/56
f 3/56/56 12/54/54 11/55/55
f 12/57/57 22/58/58 11/60/60
f 11/60/60 22/58/58 21/59/59
f 22/61/61 24/62/62 21/64/64
f 21/64/64 24/62/62 23/63/63
f 58/65/65 52/66/66 57/68/68
f 57/68/68 52/66/66 51/67/67
f 52/69/69 38/70/70 51/72/72
f 51/72/72 38/70/70 37/71/71
f 38/73/73 40/74/74 37/76/76
f 37/76/76 40/74/74 39/75/75
f 40/77/77 32/78/78 39/80/80
f 39/80/80 32/78/78 31/79/79
f 32/81/81 30/82/82 31/84/84
f 31/84/84 30/82/82 29/83/83
f 30/85/85 16/86/86 29/88/88
f 29/88/88 16/86/86 15/87/87
f 16/89/89 10/90/90 15/92/92
f 15/92/92 10/90/90 9/91/91
f 10/93/93 8/94/94 9/96/96
f 9/96/96 8/94/94 7/95/95
f 24/97/97 48/98/98 23/100/100
f 23/100/100 48/98/98 47/99/99
f 48/101/101 46/102/102 47/104/104
f 47/104/104 46/102/102 45/103/103
f 46/105/105 60/106/106 45/108/108
f 45/108/108 60/106/106 59/107/107
f 60/109/109 64/110/110 59/112/112
f 59/112/112 64/110/110 63/111/111
f 64/113/113 62/114/114 63/116/116
f 63/116/116 62/114/114 61/115/115
f 62/117/117 54/118/118 61/120/120
f 61/120/120 54/118/118 53/119/119
f 54/121/121 44/122/122 53/124/124
f 53/124/124 44/122/122 43/123/123
f 44/125/125 42/126/126 43/128/128
f 43/128/128 42/126/126 41/127/127
f 51/130/130 59/148/148 57/129/129
f 57/129/129 59/148/148 63/149/149
f 57/129/129 63/149/149 61/150/150
f 51/130/130 37/131/131 59/148/148
f 59/148/148 37/131/131 45/147/147
f 45/147/147 37/131/131 39/132/132
f 45/147/147 39/132/132 47/146/146
f 47/146/146 39/132/132 31/133/133
f 47/146/146 31/133/133 23/145/145
f 23/145/145 31/133/133 21/160/160
f 21/160/160 31/133/133 29/134/134
f 21/160/160 29/134/134 11/159/159
f 11/159/159 29/134/134 15/135/135
f 11/159/159 15/135/135 9/136/136
f 7/137/137 1/157/157 9/136/136
f 9/136/136 1/157/157 3/158/158
f 9/136/136 3/158/158 11/159/159
f 1/157/157 7/137/137 5/156/156
f 5/156/156 7/137/137 13/138/138
f 5/156/156 13/138/138 27/139/139
f 5/156/156 27/139/139 19/155/155
f 19/155/155 27/139/139 25/140/140
f 19/155/155 25/140/140 17/154/154
f 17/154/154 25/140/140 33/141/141
f 17/154/154 33/141/141 41/153/153
f 41/153/153 33/141/141 43/152/152
f 43/152/152 33/141/141 35/142/142
f 43/152/152 35/142/142 53/151/151
f 53/151/151 35/142/142 49/143/143
f 53/151/151 49/143/143 55/144/144
f 53/151/151 55/144/144 61/150/150
f 61/150/150 55/144/144 57/129/129
f 38/176/176 52/161/161 60/191/191
f 60/191/191 52/161/161 58/162/162
f 60/191/191 58/162/162 64/190/190
f 64/190/190 58/162/162 62/189/189
f 62/189/189 58/162/162 56/163/163
f 62/189/189 56/163/163 54/188/188
f 54/188/188 56/163/163 50/164/164
f 54/188/188 50/164/164 36/165/165
f 54/188/188 36/165/165 44/187/187
f 44/187/187 36/165/165 34/166/166
f 44/187/187 34/166/166 42/186/186
f 42/186/186 34/166/166 26/167/167
f 42/186/186 26/167/167 18/185/185
f 18/185/185 26/167/167 20/184/184
f 20/184/184 26/167/167 28/168/168
f 20/184/184 28/168/168 6/183/183
f 6/183/183 28/168/168 14/169/169
f 6/183/183 14/169/169 8/170/170
f 6/183/183 8/170/170 2/182/182
f 2/182/182 8/170/170 10/171/171
f 2/182/182 10/171/171 4/181/181
f 4/181/181 10/171/171 12/180/180
f 12/180/180 10/171/171 16/172/172
f 12/180/180 16/172/172 30/173/173
f 12/180/180 30/173/173 22/179/179
f 22/179/179 30/173/173 32/174/174
f 22/179/179 32/174/174 24/178/178
f 24/178/178 32/174/174 40/175/175
f 24/178/178 40/175/175 48/177/177
f 48/177/177 40/175/175 46/192/192
f 46/192/192 40/175/175 38/176/176
f 46/192/192 38/176/176 60/191/191
# 64 vertices
# 192 texture params
# 192 normals
# 128 facets

# 23 groups
