# WaveFront *.obj file (generated by Autodesk ATF)

mtllib V5_Tunnel Horizontal.mtl

g Solid1:36

v -14.675000 10.200000 24.825000
v 14.675000 10.200000 24.825000
v 14.675000 10.200000 21.566243
v 21.566243 10.200000 14.675000
v 22.525000 10.200000 14.675000
v 22.525000 10.200000 -14.675000
v 21.566243 10.200000 -14.675000
v 14.675000 10.200000 -21.566243
v 14.675000 10.200000 -24.825000
v -14.675000 10.200000 -24.825000
v -14.675000 10.200000 -21.566243
v -21.566243 10.200000 -14.675000
v -22.525000 10.200000 -14.675000
v -22.525000 10.200000 14.675000
v -21.566243 10.200000 14.675000
v -14.675000 10.200000 21.566243
v -14.675000 39.525000 -24.825000
v -14.675000 39.525000 -21.566243
v -16.975000 7.700000 -22.518934
v -16.975000 42.025000 -22.518934
v -16.975000 42.025000 -24.825000
v -16.975000 7.700000 -24.825000
v -22.518934 7.700000 -16.975000
v -22.518934 42.025000 -16.975000
v -24.825000 7.700000 -16.975000
v -24.825000 42.025000 -16.975000
v -24.825000 7.700000 16.975000
v -24.825000 42.025000 16.975000
v -22.518934 7.700000 16.975000
v -22.518934 42.025000 16.975000
v -16.975000 7.700000 22.518934
v -16.975000 42.025000 22.518934
v 14.675000 39.525000 -21.566243
v 14.675000 39.525000 -24.825000
v 16.975000 42.025000 -24.825000
v 16.975000 7.700000 -24.825000
v 21.566243 39.525000 -14.675000
v 22.525000 39.525000 -14.675000
v 22.525000 39.525000 14.675000
v 21.566243 39.525000 14.675000
v 14.675000 39.525000 21.566243
v 14.675000 39.525000 24.825000
v -16.975000 7.700000 24.825000
v -16.975000 42.025000 24.825000
v -14.675000 39.525000 24.825000
v 16.975000 7.700000 24.825000
v 16.975000 42.025000 24.825000
v -14.675000 39.525000 21.566243
v -21.566243 39.525000 14.675000
v -22.525000 39.525000 14.675000
v -22.525000 39.525000 -14.675000
v -21.566243 39.525000 -14.675000
v 16.975000 42.025000 22.518934
v 22.518934 42.025000 16.975000
v 24.825000 42.025000 16.975000
v 24.825000 42.025000 -16.975000
v 22.518934 42.025000 -16.975000
v 16.975000 42.025000 -22.518934
v 16.975000 7.700000 22.518934
v 22.518934 7.700000 16.975000
v 24.825000 7.700000 16.975000
v 24.825000 7.700000 -16.975000
v 22.518934 7.700000 -16.975000
v 16.975000 7.700000 -22.518934
vt 1.467500 2.482500 0.000000
vt -1.467500 2.482500 0.000000
vt 1.467500 2.156624 0.000000
vt -1.467500 2.156624 0.000000
vt 1.467500 -2.156624 0.000000
vt -1.467500 -2.156624 0.000000
vt 1.467500 -2.482500 0.000000
vt -1.467500 -2.482500 0.000000
vt -2.156624 1.467500 0.000000
vt -2.156624 -1.467500 0.000000
vt -2.252500 1.467500 0.000000
vt -2.252500 -1.467500 0.000000
vt 2.156624 1.467500 0.000000
vt 2.156624 -1.467500 0.000000
vt 2.252500 -1.467500 0.000000
vt 2.252500 1.467500 0.000000
vt 0.325876 3.952500 0.000000
vt 0.000000 3.952500 0.000000
vt 0.325876 1.020000 0.000000
vt 0.000000 1.020000 0.000000
vt 0.000000 0.770000 0.000000
vt 0.230607 0.770000 0.000000
vt 0.000000 4.202500 0.000000
vt 0.230607 4.202500 0.000000
vt 0.000000 0.770000 0.000000
vt 0.784031 0.770000 0.000000
vt 0.000000 4.202500 0.000000
vt 0.784031 4.202500 0.000000
vt 0.000000 0.770000 0.000000
vt 0.230607 0.770000 0.000000
vt 0.000000 4.202500 0.000000
vt 0.230607 4.202500 0.000000
vt -0.000000 0.770000 0.000000
vt 3.395000 0.770000 0.000000
vt -0.000000 4.202500 0.000000
vt 3.395000 4.202500 0.000000
vt -0.000000 0.770000 0.000000
vt 0.230607 0.770000 0.000000
vt -0.000000 4.202500 0.000000
vt 0.230607 4.202500 0.000000
vt -0.000000 0.770000 0.000000
vt 0.784031 0.770000 0.000000
vt -0.000000 4.202500 0.000000
vt 0.784031 4.202500 0.000000
vt 0.325876 3.952500 0.000000
vt 0.000000 3.952500 0.000000
vt 0.325876 1.020000 0.000000
vt 0.000000 1.020000 0.000000
vt 0.000000 0.770000 0.000000
vt 0.230000 3.952500 0.000000
vt 0.000000 4.202500 0.000000
vt 3.165000 3.952500 0.000000
vt 3.395000 4.202500 0.000000
vt 3.395000 0.770000 0.000000
vt 3.165000 1.020000 0.000000
vt 0.230000 1.020000 0.000000
vt 0.974569 3.952500 0.000000
vt 0.000000 3.952500 0.000000
vt 0.974569 1.020000 0.000000
vt 0.000000 1.020000 0.000000
vt 0.095876 3.952500 0.000000
vt 0.000000 3.952500 0.000000
vt 0.095876 1.020000 0.000000
vt 0.000000 1.020000 0.000000
vt 2.935000 3.952500 0.000000
vt 0.000000 3.952500 0.000000
vt 2.935000 1.020000 0.000000
vt 0.000000 1.020000 0.000000
vt 0.095876 3.952500 0.000000
vt 0.000000 3.952500 0.000000
vt 0.095876 1.020000 0.000000
vt 0.000000 1.020000 0.000000
vt 0.974569 3.952500 0.000000
vt 0.000000 3.952500 0.000000
vt 0.974569 1.020000 0.000000
vt 0.000000 1.020000 0.000000
vt 0.325876 3.952500 0.000000
vt -0.000000 3.952500 0.000000
vt 0.325876 1.020000 0.000000
vt -0.000000 1.020000 0.000000
vt 0.000000 0.770000 0.000000
vt 0.230607 0.770000 0.000000
vt 0.000000 4.202500 0.000000
vt 0.230607 4.202500 0.000000
vt -0.000000 1.020000 0.000000
vt 0.230000 0.770000 0.000000
vt -0.000000 3.952500 0.000000
vt 0.230000 4.202500 0.000000
vt -3.165000 4.202500 0.000000
vt -2.935000 1.020000 0.000000
vt -3.165000 0.770000 0.000000
vt -2.935000 3.952500 0.000000
vt 0.325876 3.952500 0.000000
vt 0.000000 3.952500 0.000000
vt 0.325876 1.020000 0.000000
vt 0.000000 1.020000 0.000000
vt 0.974569 3.952500 0.000000
vt 0.000000 3.952500 0.000000
vt 0.974569 1.020000 0.000000
vt 0.000000 1.020000 0.000000
vt 0.095876 3.952500 0.000000
vt 0.000000 3.952500 0.000000
vt 0.095876 1.020000 0.000000
vt 0.000000 1.020000 0.000000
vt 2.935000 3.952500 0.000000
vt 0.000000 3.952500 0.000000
vt 2.935000 1.020000 0.000000
vt 0.000000 1.020000 0.000000
vt 0.095876 3.952500 0.000000
vt 0.000000 3.952500 0.000000
vt 0.095876 1.020000 0.000000
vt 0.000000 1.020000 0.000000
vt 0.974569 3.952500 0.000000
vt 0.000000 3.952500 0.000000
vt 0.974569 1.020000 0.000000
vt 0.000000 1.020000 0.000000
vt -1.697500 -2.482500 0.000000
vt 1.697500 -2.482500 0.000000
vt -1.697500 -2.251893 0.000000
vt 1.697500 -2.251893 0.000000
vt -2.251893 -1.697500 0.000000
vt -2.251893 1.697500 0.000000
vt -2.482500 1.697500 0.000000
vt 2.251893 -1.697500 0.000000
vt -1.697500 2.251893 0.000000
vt 2.251893 1.697500 0.000000
vt 1.697500 2.251893 0.000000
vt 2.482500 -1.697500 0.000000
vt 2.482500 1.697500 0.000000
vt 1.697500 2.482500 0.000000
vt -1.697500 2.482500 0.000000
vt -2.482500 -1.697500 0.000000
vt 1.467500 2.482500 0.000000
vt -1.467500 2.482500 0.000000
vt 1.467500 2.156624 0.000000
vt -1.467500 2.156624 0.000000
vt 1.467500 -2.156624 0.000000
vt -1.467500 -2.156624 0.000000
vt 1.467500 -2.482500 0.000000
vt -1.467500 -2.482500 0.000000
vt -2.156624 1.467500 0.000000
vt -2.156624 -1.467500 0.000000
vt -2.252500 1.467500 0.000000
vt -2.252500 -1.467500 0.000000
vt 2.156624 1.467500 0.000000
vt 2.156624 -1.467500 0.000000
vt 2.252500 -1.467500 0.000000
vt 2.252500 1.467500 0.000000
vt 0.000000 0.770000 0.000000
vt 0.230607 0.770000 0.000000
vt 0.000000 4.202500 0.000000
vt 0.230607 4.202500 0.000000
vt 0.000000 0.770000 0.000000
vt 0.784031 0.770000 0.000000
vt 0.000000 4.202500 0.000000
vt 0.784031 4.202500 0.000000
vt -0.000000 0.770000 0.000000
vt 0.230607 0.770000 0.000000
vt -0.000000 4.202500 0.000000
vt 0.230607 4.202500 0.000000
vt 0.000000 0.770000 0.000000
vt 3.395000 0.770000 0.000000
vt 0.000000 4.202500 0.000000
vt 3.395000 4.202500 0.000000
vt 0.000000 0.770000 0.000000
vt 0.230607 0.770000 0.000000
vt 0.000000 4.202500 0.000000
vt 0.230607 4.202500 0.000000
vt 0.000000 0.770000 0.000000
vt 0.784031 0.770000 0.000000
vt 0.000000 4.202500 0.000000
vt 0.784031 4.202500 0.000000
vt 0.000000 0.770000 0.000000
vt 0.230607 0.770000 0.000000
vt 0.000000 4.202500 0.000000
vt 0.230607 4.202500 0.000000
vt 1.697500 2.482500 0.000000
vt -1.697500 2.482500 0.000000
vt 1.697500 2.251893 0.000000
vt -1.697500 2.251893 0.000000
vt 2.251893 1.697500 0.000000
vt 2.251893 -1.697500 0.000000
vt 2.482500 -1.697500 0.000000
vt -2.251893 1.697500 0.000000
vt 1.697500 -2.251893 0.000000
vt -2.251893 -1.697500 0.000000
vt -1.697500 -2.251893 0.000000
vt -2.482500 1.697500 0.000000
vt -2.482500 -1.697500 0.000000
vt -1.697500 -2.482500 0.000000
vt 1.697500 -2.482500 0.000000
vt 2.482500 1.697500 0.000000
vn 0.000000 0.100000 0.000000
vn 0.000000 0.100000 0.000000
vn 0.000000 0.100000 0.000000
vn 0.000000 0.100000 0.000000
vn 0.000000 0.100000 0.000000
vn 0.000000 0.100000 0.000000
vn 0.000000 0.100000 0.000000
vn 0.000000 0.100000 0.000000
vn 0.000000 0.100000 0.000000
vn 0.000000 0.100000 0.000000
vn 0.000000 0.100000 0.000000
vn 0.000000 0.100000 0.000000
vn 0.000000 0.100000 0.000000
vn 0.000000 0.100000 0.000000
vn 0.000000 0.100000 0.000000
vn 0.000000 0.100000 0.000000
vn 0.100000 -0.000000 -0.000000
vn 0.100000 -0.000000 -0.000000
vn 0.100000 -0.000000 -0.000000
vn 0.100000 -0.000000 -0.000000
vn -0.100000 0.000000 -0.000000
vn -0.100000 0.000000 -0.000000
vn -0.100000 0.000000 -0.000000
vn -0.100000 0.000000 -0.000000
vn -0.070711 0.000000 -0.070711
vn -0.070711 0.000000 -0.070711
vn -0.070711 0.000000 -0.070711
vn -0.070711 0.000000 -0.070711
vn 0.000000 -0.000000 -0.100000
vn 0.000000 -0.000000 -0.100000
vn 0.000000 -0.000000 -0.100000
vn 0.000000 -0.000000 -0.100000
vn -0.100000 0.000000 0.000000
vn -0.100000 0.000000 0.000000
vn -0.100000 0.000000 0.000000
vn -0.100000 0.000000 0.000000
vn -0.000000 0.000000 0.100000
vn -0.000000 0.000000 0.100000
vn -0.000000 0.000000 0.100000
vn -0.000000 0.000000 0.100000
vn -0.070711 0.000000 0.070711
vn -0.070711 0.000000 0.070711
vn -0.070711 0.000000 0.070711
vn -0.070711 0.000000 0.070711
vn -0.100000 0.000000 0.000000
vn -0.100000 0.000000 0.000000
vn -0.100000 0.000000 0.000000
vn -0.100000 0.000000 0.000000
vn 0.000000 -0.000000 -0.100000
vn 0.000000 -0.000000 -0.100000
vn 0.000000 -0.000000 -0.100000
vn 0.000000 -0.000000 -0.100000
vn 0.000000 -0.000000 -0.100000
vn 0.000000 -0.000000 -0.100000
vn 0.000000 -0.000000 -0.100000
vn 0.000000 -0.000000 -0.100000
vn -0.070711 0.000000 0.070711
vn -0.070711 0.000000 0.070711
vn -0.070711 0.000000 0.070711
vn -0.070711 0.000000 0.070711
vn -0.000000 0.000000 0.100000
vn -0.000000 0.000000 0.100000
vn -0.000000 0.000000 0.100000
vn -0.000000 0.000000 0.100000
vn -0.100000 0.000000 0.000000
vn -0.100000 0.000000 0.000000
vn -0.100000 0.000000 0.000000
vn -0.100000 0.000000 0.000000
vn 0.000000 -0.000000 -0.100000
vn 0.000000 -0.000000 -0.100000
vn 0.000000 -0.000000 -0.100000
vn 0.000000 -0.000000 -0.100000
vn -0.070711 0.000000 -0.070711
vn -0.070711 0.000000 -0.070711
vn -0.070711 0.000000 -0.070711
vn -0.070711 0.000000 -0.070711
vn -0.100000 0.000000 0.000000
vn -0.100000 0.000000 0.000000
vn -0.100000 0.000000 0.000000
vn -0.100000 0.000000 0.000000
vn -0.100000 0.000000 -0.000000
vn -0.100000 0.000000 -0.000000
vn -0.100000 0.000000 -0.000000
vn -0.100000 0.000000 -0.000000
vn 0.000000 0.000000 0.100000
vn 0.000000 0.000000 0.100000
vn 0.000000 0.000000 0.100000
vn 0.000000 0.000000 0.100000
vn 0.000000 0.000000 0.100000
vn 0.000000 0.000000 0.100000
vn 0.000000 0.000000 0.100000
vn 0.000000 0.000000 0.100000
vn 0.100000 0.000000 0.000000
vn 0.100000 0.000000 0.000000
vn 0.100000 0.000000 0.000000
vn 0.100000 0.000000 0.000000
vn 0.070711 -0.000000 -0.070711
vn 0.070711 -0.000000 -0.070711
vn 0.070711 -0.000000 -0.070711
vn 0.070711 -0.000000 -0.070711
vn 0.000000 -0.000000 -0.100000
vn 0.000000 -0.000000 -0.100000
vn 0.000000 -0.000000 -0.100000
vn 0.000000 -0.000000 -0.100000
vn 0.100000 -0.000000 -0.000000
vn 0.100000 -0.000000 -0.000000
vn 0.100000 -0.000000 -0.000000
vn 0.100000 -0.000000 -0.000000
vn -0.000000 0.000000 0.100000
vn -0.000000 0.000000 0.100000
vn -0.000000 0.000000 0.100000
vn -0.000000 0.000000 0.100000
vn 0.070711 0.000000 0.070711
vn 0.070711 0.000000 0.070711
vn 0.070711 0.000000 0.070711
vn 0.070711 0.000000 0.070711
vn 0.000000 0.100000 0.000000
vn 0.000000 0.100000 0.000000
vn 0.000000 0.100000 0.000000
vn 0.000000 0.100000 0.000000
vn 0.000000 0.100000 0.000000
vn 0.000000 0.100000 0.000000
vn 0.000000 0.100000 0.000000
vn 0.000000 0.100000 0.000000
vn 0.000000 0.100000 0.000000
vn 0.000000 0.100000 0.000000
vn 0.000000 0.100000 0.000000
vn 0.000000 0.100000 0.000000
vn 0.000000 0.100000 0.000000
vn 0.000000 0.100000 0.000000
vn 0.000000 0.100000 0.000000
vn 0.000000 0.100000 0.000000
vn 0.000000 -0.100000 0.000000
vn 0.000000 -0.100000 0.000000
vn 0.000000 -0.100000 0.000000
vn 0.000000 -0.100000 0.000000
vn 0.000000 -0.100000 0.000000
vn 0.000000 -0.100000 0.000000
vn 0.000000 -0.100000 0.000000
vn 0.000000 -0.100000 0.000000
vn 0.000000 -0.100000 0.000000
vn 0.000000 -0.100000 0.000000
vn 0.000000 -0.100000 0.000000
vn 0.000000 -0.100000 0.000000
vn 0.000000 -0.100000 0.000000
vn 0.000000 -0.100000 0.000000
vn 0.000000 -0.100000 0.000000
vn 0.000000 -0.100000 0.000000
vn 0.100000 0.000000 0.000000
vn 0.100000 0.000000 0.000000
vn 0.100000 0.000000 0.000000
vn 0.100000 0.000000 0.000000
vn 0.070711 0.000000 0.070711
vn 0.070711 0.000000 0.070711
vn 0.070711 0.000000 0.070711
vn 0.070711 0.000000 0.070711
vn -0.000000 0.000000 0.100000
vn -0.000000 0.000000 0.100000
vn -0.000000 0.000000 0.100000
vn -0.000000 0.000000 0.100000
vn 0.100000 0.000000 0.000000
vn 0.100000 0.000000 0.000000
vn 0.100000 0.000000 0.000000
vn 0.100000 0.000000 0.000000
vn 0.000000 -0.000000 -0.100000
vn 0.000000 -0.000000 -0.100000
vn 0.000000 -0.000000 -0.100000
vn 0.000000 -0.000000 -0.100000
vn 0.070711 -0.000000 -0.070711
vn 0.070711 -0.000000 -0.070711
vn 0.070711 -0.000000 -0.070711
vn 0.070711 -0.000000 -0.070711
vn 0.100000 0.000000 0.000000
vn 0.100000 0.000000 0.000000
vn 0.100000 0.000000 0.000000
vn 0.100000 0.000000 0.000000
vn 0.000000 -0.100000 0.000000
vn 0.000000 -0.100000 0.000000
vn 0.000000 -0.100000 0.000000
vn 0.000000 -0.100000 0.000000
vn 0.000000 -0.100000 0.000000
vn 0.000000 -0.100000 0.000000
vn 0.000000 -0.100000 0.000000
vn 0.000000 -0.100000 0.000000
vn 0.000000 -0.100000 0.000000
vn 0.000000 -0.100000 0.000000
vn 0.000000 -0.100000 0.000000
vn 0.000000 -0.100000 0.000000
vn 0.000000 -0.100000 0.000000
vn 0.000000 -0.100000 0.000000
vn 0.000000 -0.100000 0.000000
vn 0.000000 -0.100000 0.000000
usemtl 128,64,64
f 1/1/1 2/2/2 16/3/3
f 16/3/3 2/2/2 3/4/4
f 16/3/3 3/4/4 11/5/5
f 11/5/5 3/4/4 8/6/6
f 11/5/5 8/6/6 10/7/7
f 10/7/7 8/6/6 9/8/8
f 3/4/4 4/9/9 8/6/6
f 8/6/6 4/9/9 7/10/10
f 7/10/10 4/9/9 5/11/11
f 7/10/10 5/11/11 6/12/12
f 16/3/3 11/5/5 15/13/13
f 15/13/13 11/5/5 12/14/14
f 15/13/13 12/14/14 13/15/15
f 13/15/15 14/16/16 15/13/13
f 11/17/17 10/18/18 18/19/19
f 18/19/19 10/18/18 17/20/20
f 20/21/21 21/22/22 19/23/23
f 19/23/23 21/22/22 22/24/24
f 24/25/25 20/26/26 23/27/27
f 23/27/27 20/26/26 19/28/28
f 26/29/29 24/30/30 25/31/31
f 25/31/31 24/30/30 23/32/32
f 28/33/33 26/34/34 27/35/35
f 27/35/35 26/34/34 25/36/36
f 30/37/37 28/38/38 29/39/39
f 29/39/39 28/38/38 27/40/40
f 32/41/41 30/42/42 31/43/43
f 31/43/43 30/42/42 29/44/44
f 9/45/45 8/46/46 34/47/47
f 34/47/47 8/46/46 33/48/48
f 21/49/49 10/50/50 22/51/51
f 22/51/51 10/50/50 9/52/52
f 22/51/51 9/52/52 36/53/53
f 36/53/53 9/52/52 35/54/54
f 35/54/54 9/52/52 34/55/55
f 35/54/54 34/55/55 17/56/56
f 10/50/50 21/49/49 17/56/56
f 17/56/56 21/49/49 35/54/54
f 8/57/57 7/58/58 33/59/59
f 33/59/59 7/58/58 37/60/60
f 7/61/61 6/62/62 37/63/63
f 37/63/63 6/62/62 38/64/64
f 6/65/65 5/66/66 38/67/67
f 38/67/67 5/66/66 39/68/68
f 5/69/69 4/70/70 39/71/71
f 39/71/71 4/70/70 40/72/72
f 4/73/73 3/74/74 40/75/75
f 40/75/75 3/74/74 41/76/76
f 3/77/77 2/78/78 41/79/79
f 41/79/79 2/78/78 42/80/80
f 44/81/81 32/82/82 43/83/83
f 43/83/83 32/82/82 31/84/84
f 45/85/85 44/86/86 1/87/87
f 1/87/87 44/86/86 43/88/88
f 1/87/87 43/88/88 46/89/89
f 45/85/85 42/90/90 44/86/86
f 44/86/86 42/90/90 47/91/91
f 47/91/91 42/90/90 2/92/92
f 47/91/91 2/92/92 46/89/89
f 46/89/89 2/92/92 1/87/87
f 1/93/93 16/94/94 45/95/95
f 45/95/95 16/94/94 48/96/96
f 16/97/97 15/98/98 48/99/99
f 48/99/99 15/98/98 49/100/100
f 15/101/101 14/102/102 49/103/103
f 49/103/103 14/102/102 50/104/104
f 14/105/105 13/106/106 50/107/107
f 50/107/107 13/106/106 51/108/108
f 13/109/109 12/110/110 51/111/111
f 51/111/111 12/110/110 52/112/112
f 12/113/113 11/114/114 52/115/115
f 52/115/115 11/114/114 18/116/116
f 35/117/117 21/118/118 58/119/119
f 58/119/119 21/118/118 20/120/120
f 58/119/119 20/120/120 57/121/121
f 57/121/121 20/120/120 54/122/122
f 57/121/121 54/122/122 55/123/123
f 20/120/120 24/124/124 54/122/122
f 54/122/122 24/124/124 53/125/125
f 53/125/125 24/124/124 30/126/126
f 53/125/125 30/126/126 32/127/127
f 24/124/124 26/128/128 30/126/126
f 30/126/126 26/128/128 28/129/129
f 44/130/130 47/131/131 32/127/127
f 32/127/127 47/131/131 53/125/125
f 55/123/123 56/132/132 57/121/121
f 42/133/133 45/134/134 41/135/135
f 41/135/135 45/134/134 48/136/136
f 41/135/135 48/136/136 33/137/137
f 33/137/137 48/136/136 18/138/138
f 33/137/137 18/138/138 34/139/139
f 34/139/139 18/138/138 17/140/140
f 48/136/136 49/141/141 18/138/138
f 18/138/138 49/141/141 52/142/142
f 52/142/142 49/141/141 50/143/143
f 52/142/142 50/143/143 51/144/144
f 41/135/135 33/137/137 40/145/145
f 40/145/145 33/137/137 37/146/146
f 40/145/145 37/146/146 38/147/147
f 38/147/147 39/148/148 40/145/145
f 53/149/149 47/150/150 59/151/151
f 59/151/151 47/150/150 46/152/152
f 54/153/153 53/154/154 60/155/155
f 60/155/155 53/154/154 59/156/156
f 55/157/157 54/158/158 61/159/159
f 61/159/159 54/158/158 60/160/160
f 56/161/161 55/162/162 62/163/163
f 62/163/163 55/162/162 61/164/164
f 57/165/165 56/166/166 63/167/167
f 63/167/167 56/166/166 62/168/168
f 58/169/169 57/170/170 64/171/171
f 64/171/171 57/170/170 63/172/172
f 35/173/173 58/174/174 36/175/175
f 36/175/175 58/174/174 64/176/176
f 46/177/177 43/178/178 59/179/179
f 59/179/179 43/178/178 31/180/180
f 59/179/179 31/180/180 60/181/181
f 60/181/181 31/180/180 63/182/182
f 60/181/181 63/182/182 62/183/183
f 31/180/180 29/184/184 63/182/182
f 63/182/182 29/184/184 64/185/185
f 64/185/185 29/184/184 23/186/186
f 64/185/185 23/186/186 19/187/187
f 29/184/184 27/188/188 23/186/186
f 23/186/186 27/188/188 25/189/189
f 22/190/190 36/191/191 19/187/187
f 19/187/187 36/191/191 64/185/185
f 62/183/183 61/192/192 60/181/181
# 64 vertices
# 192 texture params
# 192 normals
# 128 facets

# 37 groups
