# WaveFront *.obj file (generated by Autodesk ATF)

mtllib V5_Tunnel Vertical.mtl

g Solid1:37

v -22.518934 7.700000 -14.825000
v -21.575000 7.700000 -14.825000
v -21.575000 42.025000 -14.825000
v -22.518934 42.025000 -14.825000
v -14.825000 7.700000 -21.575000
v -14.825000 42.025000 -21.575000
v -14.825000 7.700000 -22.518934
v -14.825000 42.025000 -22.518934
v 14.825000 7.700000 -22.518934
v 14.825000 42.025000 -22.518934
v 14.825000 7.700000 -21.575000
v 14.825000 42.025000 -21.575000
v 21.575000 7.700000 -14.825000
v 21.575000 42.025000 -14.825000
v 22.518934 7.700000 -14.825000
v 22.518934 42.025000 -14.825000
v 22.518934 7.700000 14.825000
v 22.518934 42.025000 14.825000
v 16.975000 7.700000 -24.825000
v -16.975000 7.700000 -24.825000
v -16.975000 42.025000 -24.825000
v 16.975000 42.025000 -24.825000
v -16.975000 7.700000 -22.518934
v -16.975000 42.025000 -22.518934
v -22.518934 7.700000 -16.975000
v -22.518934 42.025000 -16.975000
v -24.825000 7.700000 -16.975000
v -24.825000 42.025000 -16.975000
v -24.825000 7.700000 16.975000
v -24.825000 42.025000 16.975000
v -22.518934 7.700000 16.975000
v -22.518934 42.025000 16.975000
v -16.975000 7.700000 22.518934
v -16.975000 42.025000 22.518934
v -16.975000 7.700000 24.825000
v -16.975000 42.025000 24.825000
v 21.575000 7.700000 14.825000
v 21.575000 42.025000 14.825000
v 14.825000 7.700000 21.575000
v 14.825000 42.025000 21.575000
v 14.825000 7.700000 22.518934
v 14.825000 42.025000 22.518934
v -14.825000 7.700000 22.518934
v -14.825000 42.025000 22.518934
v -14.825000 7.700000 21.575000
v -14.825000 42.025000 21.575000
v -21.575000 7.700000 14.825000
v -21.575000 42.025000 14.825000
v -22.518934 7.700000 14.825000
v -22.518934 42.025000 14.825000
v 16.975000 7.700000 24.825000
v 16.975000 42.025000 24.825000
v 16.975000 7.700000 22.518934
v 16.975000 42.025000 22.518934
v 22.518934 7.700000 16.975000
v 22.518934 42.025000 16.975000
v 24.825000 7.700000 16.975000
v 24.825000 42.025000 16.975000
v 24.825000 7.700000 -16.975000
v 24.825000 42.025000 -16.975000
v 22.518934 7.700000 -16.975000
v 22.518934 42.025000 -16.975000
v 16.975000 7.700000 -22.518934
v 16.975000 42.025000 -22.518934
vt 0.094393 4.202500 0.000000
vt 0.000000 4.202500 0.000000
vt 0.094393 0.770000 0.000000
vt 0.000000 0.770000 0.000000
vt 0.954594 4.202500 0.000000
vt 0.000000 4.202500 0.000000
vt 0.954594 0.770000 0.000000
vt 0.000000 0.770000 0.000000
vt 0.094393 4.202500 0.000000
vt 0.000000 4.202500 0.000000
vt 0.094393 0.770000 0.000000
vt 0.000000 0.770000 0.000000
vt 2.965000 4.202500 0.000000
vt 0.000000 4.202500 0.000000
vt 2.965000 0.770000 0.000000
vt 0.000000 0.770000 0.000000
vt 0.094393 4.202500 0.000000
vt 0.000000 4.202500 0.000000
vt 0.094393 0.770000 0.000000
vt 0.000000 0.770000 0.000000
vt 0.954594 4.202500 0.000000
vt 0.000000 4.202500 0.000000
vt 0.954594 0.770000 0.000000
vt 0.000000 0.770000 0.000000
vt 0.094393 4.202500 0.000000
vt 0.000000 4.202500 0.000000
vt 0.094393 0.770000 0.000000
vt 0.000000 0.770000 0.000000
vt 2.965000 4.202500 0.000000
vt -0.000000 4.202500 0.000000
vt 2.965000 0.770000 0.000000
vt -0.000000 0.770000 0.000000
vt 3.395000 4.202500 0.000000
vt 0.000000 4.202500 0.000000
vt 3.395000 0.770000 0.000000
vt 0.000000 0.770000 0.000000
vt 0.230607 4.202500 0.000000
vt 0.000000 4.202500 0.000000
vt 0.230607 0.770000 0.000000
vt 0.000000 0.770000 0.000000
vt 0.784031 4.202500 0.000000
vt 0.000000 4.202500 0.000000
vt 0.784031 0.770000 0.000000
vt 0.000000 0.770000 0.000000
vt 0.230607 4.202500 0.000000
vt 0.000000 4.202500 0.000000
vt 0.230607 0.770000 0.000000
vt 0.000000 0.770000 0.000000
vt 3.395000 4.202500 0.000000
vt -0.000000 4.202500 0.000000
vt 3.395000 0.770000 0.000000
vt -0.000000 0.770000 0.000000
vt 0.230607 4.202500 0.000000
vt -0.000000 4.202500 0.000000
vt 0.230607 0.770000 0.000000
vt -0.000000 0.770000 0.000000
vt 0.784031 4.202500 0.000000
vt -0.000000 4.202500 0.000000
vt 0.784031 0.770000 0.000000
vt -0.000000 0.770000 0.000000
vt 0.230607 4.202500 0.000000
vt 0.000000 4.202500 0.000000
vt 0.230607 0.770000 0.000000
vt 0.000000 0.770000 0.000000
vt 0.094393 4.202500 0.000000
vt 0.000000 4.202500 0.000000
vt 0.094393 0.770000 0.000000
vt 0.000000 0.770000 0.000000
vt 0.954594 4.202500 0.000000
vt 0.000000 4.202500 0.000000
vt 0.954594 0.770000 0.000000
vt 0.000000 0.770000 0.000000
vt 0.094393 4.202500 0.000000
vt 0.000000 4.202500 0.000000
vt 0.094393 0.770000 0.000000
vt 0.000000 0.770000 0.000000
vt 2.965000 4.202500 0.000000
vt 0.000000 4.202500 0.000000
vt 2.965000 0.770000 0.000000
vt 0.000000 0.770000 0.000000
vt 0.094393 4.202500 0.000000
vt 0.000000 4.202500 0.000000
vt 0.094393 0.770000 0.000000
vt 0.000000 0.770000 0.000000
vt 0.954594 4.202500 0.000000
vt 0.000000 4.202500 0.000000
vt 0.954594 0.770000 0.000000
vt 0.000000 0.770000 0.000000
vt 0.094393 4.202500 0.000000
vt 0.000000 4.202500 0.000000
vt 0.094393 0.770000 0.000000
vt 0.000000 0.770000 0.000000
vt 2.965000 4.202500 0.000000
vt 0.000000 4.202500 0.000000
vt 2.965000 0.770000 0.000000
vt 0.000000 0.770000 0.000000
vt 3.395000 4.202500 0.000000
vt -0.000000 4.202500 0.000000
vt 3.395000 0.770000 0.000000
vt -0.000000 0.770000 0.000000
vt 0.230607 4.202500 0.000000
vt 0.000000 4.202500 0.000000
vt 0.230607 0.770000 0.000000
vt 0.000000 0.770000 0.000000
vt 0.784031 4.202500 0.000000
vt 0.000000 4.202500 0.000000
vt 0.784031 0.770000 0.000000
vt 0.000000 0.770000 0.000000
vt 0.230607 4.202500 0.000000
vt -0.000000 4.202500 0.000000
vt 0.230607 0.770000 0.000000
vt -0.000000 0.770000 0.000000
vt 3.395000 4.202500 0.000000
vt 0.000000 4.202500 0.000000
vt 3.395000 0.770000 0.000000
vt 0.000000 0.770000 0.000000
vt 0.230607 4.202500 0.000000
vt 0.000000 4.202500 0.000000
vt 0.230607 0.770000 0.000000
vt 0.000000 0.770000 0.000000
vt 0.784031 4.202500 0.000000
vt 0.000000 4.202500 0.000000
vt 0.784031 0.770000 0.000000
vt 0.000000 0.770000 0.000000
vt 0.230607 4.202500 0.000000
vt 0.000000 4.202500 0.000000
vt 0.230607 0.770000 0.000000
vt 0.000000 0.770000 0.000000
vt -2.157500 1.482500 0.000000
vt -2.251893 1.697500 0.000000
vt -2.251893 1.482500 0.000000
vt -2.482500 1.697500 0.000000
vt -2.482500 -1.697500 0.000000
vt -1.482500 2.157500 0.000000
vt -1.697500 2.251893 0.000000
vt -1.482500 2.251893 0.000000
vt -1.697500 2.482500 0.000000
vt 1.482500 2.251893 0.000000
vt 1.697500 2.482500 0.000000
vt 1.697500 2.251893 0.000000
vt 1.482500 2.157500 0.000000
vt 2.251893 1.697500 0.000000
vt 2.157500 1.482500 0.000000
vt 2.251893 1.482500 0.000000
vt 2.251893 -1.482500 0.000000
vt 2.482500 -1.697500 0.000000
vt 2.482500 1.697500 0.000000
vt 2.251893 -1.697500 0.000000
vt 2.157500 -1.482500 0.000000
vt 1.482500 -2.157500 0.000000
vt 1.697500 -2.251893 0.000000
vt 1.482500 -2.251893 0.000000
vt 1.697500 -2.482500 0.000000
vt -1.482500 -2.251893 0.000000
vt -1.697500 -2.482500 0.000000
vt -1.697500 -2.251893 0.000000
vt -1.482500 -2.157500 0.000000
vt -2.251893 -1.697500 0.000000
vt -2.157500 -1.482500 0.000000
vt -2.251893 -1.482500 0.000000
vt 1.482500 2.157500 0.000000
vt 2.157500 1.482500 0.000000
vt 2.251893 1.697500 0.000000
vt 2.251893 1.482500 0.000000
vt 2.482500 1.697500 0.000000
vt 2.482500 -1.697500 0.000000
vt 2.251893 -1.482500 0.000000
vt 2.251893 -1.697500 0.000000
vt 2.157500 -1.482500 0.000000
vt 1.482500 -2.157500 0.000000
vt 1.697500 -2.251893 0.000000
vt 1.482500 -2.251893 0.000000
vt 1.697500 -2.482500 0.000000
vt -1.482500 -2.251893 0.000000
vt -1.697500 -2.482500 0.000000
vt -1.697500 -2.251893 0.000000
vt -1.482500 -2.157500 0.000000
vt -2.251893 -1.697500 0.000000
vt -2.157500 -1.482500 0.000000
vt -2.251893 -1.482500 0.000000
vt -2.482500 -1.697500 0.000000
vt -2.251893 1.482500 0.000000
vt -2.482500 1.697500 0.000000
vt -2.251893 1.697500 0.000000
vt -2.157500 1.482500 0.000000
vt -1.482500 2.157500 0.000000
vt -1.697500 2.251893 0.000000
vt -1.482500 2.251893 0.000000
vt -1.697500 2.482500 0.000000
vt 1.482500 2.251893 0.000000
vt 1.697500 2.482500 0.000000
vt 1.697500 2.251893 0.000000
vn 0.000000 0.000000 0.100000
vn 0.000000 0.000000 0.100000
vn 0.000000 0.000000 0.100000
vn 0.000000 0.000000 0.100000
vn 0.070711 0.000000 0.070711
vn 0.070711 0.000000 0.070711
vn 0.070711 0.000000 0.070711
vn 0.070711 0.000000 0.070711
vn 0.100000 0.000000 0.000000
vn 0.100000 0.000000 0.000000
vn 0.100000 0.000000 0.000000
vn 0.100000 0.000000 0.000000
vn 0.000000 0.000000 0.100000
vn 0.000000 0.000000 0.100000
vn 0.000000 0.000000 0.100000
vn 0.000000 0.000000 0.100000
vn -0.100000 0.000000 0.000000
vn -0.100000 0.000000 0.000000
vn -0.100000 0.000000 0.000000
vn -0.100000 0.000000 0.000000
vn -0.070711 0.000000 0.070711
vn -0.070711 0.000000 0.070711
vn -0.070711 0.000000 0.070711
vn -0.070711 0.000000 0.070711
vn 0.000000 0.000000 0.100000
vn 0.000000 0.000000 0.100000
vn 0.000000 0.000000 0.100000
vn 0.000000 0.000000 0.100000
vn -0.100000 0.000000 0.000000
vn -0.100000 0.000000 0.000000
vn -0.100000 0.000000 0.000000
vn -0.100000 0.000000 0.000000
vn 0.000000 -0.000000 -0.100000
vn 0.000000 -0.000000 -0.100000
vn 0.000000 -0.000000 -0.100000
vn 0.000000 -0.000000 -0.100000
vn -0.100000 0.000000 -0.000000
vn -0.100000 0.000000 -0.000000
vn -0.100000 0.000000 -0.000000
vn -0.100000 0.000000 -0.000000
vn -0.070711 0.000000 -0.070711
vn -0.070711 0.000000 -0.070711
vn -0.070711 0.000000 -0.070711
vn -0.070711 0.000000 -0.070711
vn 0.000000 -0.000000 -0.100000
vn 0.000000 -0.000000 -0.100000
vn 0.000000 -0.000000 -0.100000
vn 0.000000 -0.000000 -0.100000
vn -0.100000 0.000000 0.000000
vn -0.100000 0.000000 0.000000
vn -0.100000 0.000000 0.000000
vn -0.100000 0.000000 0.000000
vn -0.000000 0.000000 0.100000
vn -0.000000 0.000000 0.100000
vn -0.000000 0.000000 0.100000
vn -0.000000 0.000000 0.100000
vn -0.070711 0.000000 0.070711
vn -0.070711 0.000000 0.070711
vn -0.070711 0.000000 0.070711
vn -0.070711 0.000000 0.070711
vn -0.100000 0.000000 -0.000000
vn -0.100000 0.000000 -0.000000
vn -0.100000 0.000000 -0.000000
vn -0.100000 0.000000 -0.000000
vn -0.000000 0.000000 -0.100000
vn -0.000000 0.000000 -0.100000
vn -0.000000 0.000000 -0.100000
vn -0.000000 0.000000 -0.100000
vn -0.070711 0.000000 -0.070711
vn -0.070711 0.000000 -0.070711
vn -0.070711 0.000000 -0.070711
vn -0.070711 0.000000 -0.070711
vn -0.100000 0.000000 0.000000
vn -0.100000 0.000000 0.000000
vn -0.100000 0.000000 0.000000
vn -0.100000 0.000000 0.000000
vn -0.000000 0.000000 -0.100000
vn -0.000000 0.000000 -0.100000
vn -0.000000 0.000000 -0.100000
vn -0.000000 0.000000 -0.100000
vn 0.100000 -0.000000 -0.000000
vn 0.100000 -0.000000 -0.000000
vn 0.100000 -0.000000 -0.000000
vn 0.100000 -0.000000 -0.000000
vn 0.070711 -0.000000 -0.070711
vn 0.070711 -0.000000 -0.070711
vn 0.070711 -0.000000 -0.070711
vn 0.070711 -0.000000 -0.070711
vn 0.000000 -0.000000 -0.100000
vn 0.000000 -0.000000 -0.100000
vn 0.000000 -0.000000 -0.100000
vn 0.000000 -0.000000 -0.100000
vn 0.100000 -0.000000 -0.000000
vn 0.100000 -0.000000 -0.000000
vn 0.100000 -0.000000 -0.000000
vn 0.100000 -0.000000 -0.000000
vn 0.000000 0.000000 0.100000
vn 0.000000 0.000000 0.100000
vn 0.000000 0.000000 0.100000
vn 0.000000 0.000000 0.100000
vn 0.100000 0.000000 0.000000
vn 0.100000 0.000000 0.000000
vn 0.100000 0.000000 0.000000
vn 0.100000 0.000000 0.000000
vn 0.070711 0.000000 0.070711
vn 0.070711 0.000000 0.070711
vn 0.070711 0.000000 0.070711
vn 0.070711 0.000000 0.070711
vn -0.000000 0.000000 0.100000
vn -0.000000 0.000000 0.100000
vn -0.000000 0.000000 0.100000
vn -0.000000 0.000000 0.100000
vn 0.100000 0.000000 0.000000
vn 0.100000 0.000000 0.000000
vn 0.100000 0.000000 0.000000
vn 0.100000 0.000000 0.000000
vn 0.000000 -0.000000 -0.100000
vn 0.000000 -0.000000 -0.100000
vn 0.000000 -0.000000 -0.100000
vn 0.000000 -0.000000 -0.100000
vn 0.070711 -0.000000 -0.070711
vn 0.070711 -0.000000 -0.070711
vn 0.070711 -0.000000 -0.070711
vn 0.070711 -0.000000 -0.070711
vn 0.100000 0.000000 0.000000
vn 0.100000 0.000000 0.000000
vn 0.100000 0.000000 0.000000
vn 0.100000 0.000000 0.000000
vn 0.000000 0.100000 0.000000
vn 0.000000 0.100000 0.000000
vn 0.000000 0.100000 0.000000
vn 0.000000 0.100000 0.000000
vn 0.000000 0.100000 0.000000
vn 0.000000 0.100000 0.000000
vn 0.000000 0.100000 0.000000
vn 0.000000 0.100000 0.000000
vn 0.000000 0.100000 0.000000
vn 0.000000 0.100000 0.000000
vn 0.000000 0.100000 0.000000
vn 0.000000 0.100000 0.000000
vn 0.000000 0.100000 0.000000
vn 0.000000 0.100000 0.000000
vn 0.000000 0.100000 0.000000
vn 0.000000 0.100000 0.000000
vn 0.000000 0.100000 0.000000
vn 0.000000 0.100000 0.000000
vn 0.000000 0.100000 0.000000
vn 0.000000 0.100000 0.000000
vn 0.000000 0.100000 0.000000
vn 0.000000 0.100000 0.000000
vn 0.000000 0.100000 0.000000
vn 0.000000 0.100000 0.000000
vn 0.000000 0.100000 0.000000
vn 0.000000 0.100000 0.000000
vn 0.000000 0.100000 0.000000
vn 0.000000 0.100000 0.000000
vn 0.000000 0.100000 0.000000
vn 0.000000 0.100000 0.000000
vn 0.000000 0.100000 0.000000
vn 0.000000 0.100000 0.000000
vn 0.000000 -0.100000 0.000000
vn 0.000000 -0.100000 0.000000
vn 0.000000 -0.100000 0.000000
vn 0.000000 -0.100000 0.000000
vn 0.000000 -0.100000 0.000000
vn 0.000000 -0.100000 0.000000
vn 0.000000 -0.100000 0.000000
vn 0.000000 -0.100000 0.000000
vn 0.000000 -0.100000 0.000000
vn 0.000000 -0.100000 0.000000
vn 0.000000 -0.100000 0.000000
vn 0.000000 -0.100000 0.000000
vn 0.000000 -0.100000 0.000000
vn 0.000000 -0.100000 0.000000
vn 0.000000 -0.100000 0.000000
vn 0.000000 -0.100000 0.000000
vn 0.000000 -0.100000 0.000000
vn 0.000000 -0.100000 0.000000
vn 0.000000 -0.100000 0.000000
vn 0.000000 -0.100000 0.000000
vn 0.000000 -0.100000 0.000000
vn 0.000000 -0.100000 0.000000
vn 0.000000 -0.100000 0.000000
vn 0.000000 -0.100000 0.000000
vn 0.000000 -0.100000 0.000000
vn 0.000000 -0.100000 0.000000
vn 0.000000 -0.100000 0.000000
vn 0.000000 -0.100000 0.000000
vn 0.000000 -0.100000 0.000000
vn 0.000000 -0.100000 0.000000
vn 0.000000 -0.100000 0.000000
vn 0.000000 -0.100000 0.000000
usemtl 128,64,64
f 1/1/1 2/2/2 4/3/3
f 4/3/3 2/2/2 3/4/4
f 2/5/5 5/6/6 3/7/7
f 3/7/7 5/6/6 6/8/8
f 5/9/9 7/10/10 6/11/11
f 6/11/11 7/10/10 8/12/12
f 7/13/13 9/14/14 8/15/15
f 8/15/15 9/14/14 10/16/16
f 9/17/17 11/18/18 10/19/19
f 10/19/19 11/18/18 12/20/20
f 11/21/21 13/22/22 12/23/23
f 12/23/23 13/22/22 14/24/24
f 13/25/25 15/26/26 14/27/27
f 14/27/27 15/26/26 16/28/28
f 15/29/29 17/30/30 16/31/31
f 16/31/31 17/30/30 18/32/32
f 19/33/33 20/34/34 22/35/35
f 22/35/35 20/34/34 21/36/36
f 20/37/37 23/38/38 21/39/39
f 21/39/39 23/38/38 24/40/40
f 23/41/41 25/42/42 24/43/43
f 24/43/43 25/42/42 26/44/44
f 25/45/45 27/46/46 26/47/47
f 26/47/47 27/46/46 28/48/48
f 27/49/49 29/50/50 28/51/51
f 28/51/51 29/50/50 30/52/52
f 29/53/53 31/54/54 30/55/55
f 30/55/55 31/54/54 32/56/56
f 31/57/57 33/58/58 32/59/59
f 32/59/59 33/58/58 34/60/60
f 33/61/61 35/62/62 34/63/63
f 34/63/63 35/62/62 36/64/64
f 17/65/65 37/66/66 18/67/67
f 18/67/67 37/66/66 38/68/68
f 37/69/69 39/70/70 38/71/71
f 38/71/71 39/70/70 40/72/72
f 39/73/73 41/74/74 40/75/75
f 40/75/75 41/74/74 42/76/76
f 41/77/77 43/78/78 42/79/79
f 42/79/79 43/78/78 44/80/80
f 43/81/81 45/82/82 44/83/83
f 44/83/83 45/82/82 46/84/84
f 45/85/85 47/86/86 46/87/87
f 46/87/87 47/86/86 48/88/88
f 47/89/89 49/90/90 48/91/91
f 48/91/91 49/90/90 50/92/92
f 49/93/93 1/94/94 50/95/95
f 50/95/95 1/94/94 4/96/96
f 35/97/97 51/98/98 36/99/99
f 36/99/99 51/98/98 52/100/100
f 51/101/101 53/102/102 52/103/103
f 52/103/103 53/102/102 54/104/104
f 53/105/105 55/106/106 54/107/107
f 54/107/107 55/106/106 56/108/108
f 55/109/109 57/110/110 56/111/111
f 56/111/111 57/110/110 58/112/112
f 57/113/113 59/114/114 58/115/115
f 58/115/115 59/114/114 60/116/116
f 59/117/117 61/118/118 60/119/119
f 60/119/119 61/118/118 62/120/120
f 61/121/121 63/122/122 62/123/123
f 62/123/123 63/122/122 64/124/124
f 63/125/125 19/126/126 64/127/127
f 64/127/127 19/126/126 22/128/128
f 38/129/129 56/130/130 18/131/131
f 18/131/131 56/130/130 58/132/132
f 18/131/131 58/132/132 60/133/133
f 38/129/129 40/134/134 56/130/130
f 56/130/130 40/134/134 54/135/135
f 54/135/135 40/134/134 42/136/136
f 54/135/135 42/136/136 52/137/137
f 52/137/137 42/136/136 44/138/138
f 52/137/137 44/138/138 36/139/139
f 36/139/139 44/138/138 34/140/140
f 34/140/140 44/138/138 46/141/141
f 34/140/140 46/141/141 32/142/142
f 32/142/142 46/141/141 48/143/143
f 32/142/142 48/143/143 50/144/144
f 4/145/145 28/146/146 50/144/144
f 50/144/144 28/146/146 30/147/147
f 50/144/144 30/147/147 32/142/142
f 28/146/146 4/145/145 26/148/148
f 26/148/148 4/145/145 3/149/149
f 26/148/148 3/149/149 6/150/150
f 26/148/148 6/150/150 24/151/151
f 24/151/151 6/150/150 8/152/152
f 24/151/151 8/152/152 21/153/153
f 21/153/153 8/152/152 10/154/154
f 21/153/153 10/154/154 22/155/155
f 22/155/155 10/154/154 64/156/156
f 64/156/156 10/154/154 12/157/157
f 64/156/156 12/157/157 62/158/158
f 62/158/158 12/157/157 14/159/159
f 62/158/158 14/159/159 16/160/160
f 62/158/158 16/160/160 60/133/133
f 60/133/133 16/160/160 18/131/131
f 39/161/161 37/162/162 55/163/163
f 55/163/163 37/162/162 17/164/164
f 55/163/163 17/164/164 57/165/165
f 57/165/165 17/164/164 59/166/166
f 59/166/166 17/164/164 15/167/167
f 59/166/166 15/167/167 61/168/168
f 61/168/168 15/167/167 13/169/169
f 61/168/168 13/169/169 11/170/170
f 61/168/168 11/170/170 63/171/171
f 63/171/171 11/170/170 9/172/172
f 63/171/171 9/172/172 19/173/173
f 19/173/173 9/172/172 7/174/174
f 19/173/173 7/174/174 20/175/175
f 20/175/175 7/174/174 23/176/176
f 23/176/176 7/174/174 5/177/177
f 23/176/176 5/177/177 25/178/178
f 25/178/178 5/177/177 2/179/179
f 25/178/178 2/179/179 1/180/180
f 25/178/178 1/180/180 27/181/181
f 27/181/181 1/180/180 49/182/182
f 27/181/181 49/182/182 29/183/183
f 29/183/183 49/182/182 31/184/184
f 31/184/184 49/182/182 47/185/185
f 31/184/184 47/185/185 45/186/186
f 31/184/184 45/186/186 33/187/187
f 33/187/187 45/186/186 43/188/188
f 33/187/187 43/188/188 35/189/189
f 35/189/189 43/188/188 41/190/190
f 35/189/189 41/190/190 51/191/191
f 51/191/191 41/190/190 53/192/192
f 53/192/192 41/190/190 39/161/161
f 53/192/192 39/161/161 55/163/163
# 64 vertices
# 192 texture params
# 192 normals
# 128 facets

# 38 groups
